<?xml version="1.0" encoding="UTF-8"?>
<svg version="1.1" xmlns="http://www.w3.org/2000/svg" width="2560" height="1293">
<path d="M0 0 C2.14020935 0.00263529 4.28041701 0.00423788 6.42062759 0.0054822 C47.34702961 0.02935309 88.20568975 0.15764195 129.05060196 3.05864 C132.23699087 3.28368381 135.42379742 3.50101491 138.61098671 3.71438456 C235.79160996 10.22241928 332.11271379 23.16772164 493.7315712 57.58323717 C496.86612429 58.3607962 500.00221256 59.13194974 503.13849258 59.90251207 C552.15829312 71.97187544 600.61928728 85.87480082 648.68194962 101.31510973 C649.57903641 101.60325548 650.4761232 101.89140123 651.40039444 102.18827868 C731.78477077 128.06555233 810.50148723 159.24838698 887.14630508 194.68327379 C890.53003438 196.24499501 893.91932708 197.79385033 897.31085587 199.33854723 C909.55120079 204.92756302 921.69983684 210.69433395 933.80694962 216.56510973 C934.48483536 216.89373003 935.1627211 217.22235033 935.86114883 217.56092882 C943.88163506 221.45308713 951.87486178 225.39668058 959.84383011 229.39324999 C964.07403625 231.51430662 968.31354503 233.61513834 972.56085587 235.70182848 C985.66500897 242.16026256 998.5274603 248.89167111 1011.19366837 256.18229723 C1015.64861523 258.74395072 1020.1504074 261.20124214 1024.68170547 263.62468004 C1062.95012377 284.13368794 1099.4247932 308.68366155 1133.68194962 335.31510973 C1134.30730606 335.7986693 1134.93266251 336.28222887 1135.57696915 336.78044176 C1143.07548199 342.58011974 1150.39923775 348.54511588 1157.60382462 354.70573473 C1160.39861151 357.08983065 1163.25246006 359.39316488 1166.11944962 361.69010973 C1171.13369986 365.76602075 1175.86237248 370.10363767 1180.56061172 374.53532457 C1184.20655862 377.97215232 1187.93079813 381.29760352 1191.71051407 384.5865941 C1202.29654706 393.86821808 1212.2818182 403.81298714 1222.24444962 413.75260973 C1222.76096085 414.26653276 1223.27747208 414.7804558 1223.80963516 415.30995226 C1229.65404655 421.13123242 1235.33846819 427.02444156 1240.68194962 433.31510973 C1241.64259118 434.41026354 1242.60477962 435.50406281 1243.56866837 436.59635973 C1283.02207961 481.7436472 1311.25287928 536.04515265 1323.43194962 594.81510973 C1323.61862198 595.70142076 1323.80529434 596.5877318 1323.99762344 597.50090075 C1327.89918823 617.47123619 1329.20948223 637.44436457 1329.05694962 657.75260973 C1329.05229691 658.86674242 1329.0476442 659.98087511 1329.04285049 661.1287694 C1328.96336429 677.39781908 1328.44711812 693.25328191 1325.68194962 709.31510973 C1325.37449411 711.22841557 1325.06704915 713.14172311 1324.75984573 715.05506945 C1317.70445924 758.54376449 1305.2838247 801.24464532 1284.70636368 840.35612535 C1283.59349415 842.48426289 1282.5083926 844.62538661 1281.42413712 846.76823473 C1260.374342 888.01706777 1231.11305882 925.42892696 1199.58038712 959.19792223 C1197.77245801 961.134225 1195.99077978 963.0852704 1194.22101212 965.05729723 C1188.02186417 971.96044936 1181.54493147 978.55841383 1174.99444962 985.12760973 C1174.10314346 986.02350817 1173.21183731 986.9194066 1172.29352188 987.84245348 C1167.79890658 992.32661132 1163.24893426 996.67533246 1158.43121719 1000.81095934 C1156.02444424 1002.88048176 1153.7008448 1005.03637919 1151.36944962 1007.19010973 C1146.95841788 1011.20891566 1142.44459604 1015.04376297 1137.79913712 1018.78776598 C1135.46957019 1020.66558889 1133.16937565 1022.5753509 1130.87726212 1024.49870348 C1096.2712152 1053.463575 1057.78717828 1078.62196773 1018.06622696 1100.02360582 C1015.40439118 1101.46545625 1012.75634872 1102.93115763 1010.10773087 1104.39714098 C956.762337 1133.74287676 900.33634762 1156.94465521 842.77215958 1176.60014391 C840.67221105 1177.31844085 838.57389843 1178.04134865 836.47589493 1178.76530504 C758.5644026 1205.60728063 678.32079053 1224.70755458 597.68194962 1241.31510973 C596.61023514 1241.53598253 595.53852066 1241.75685534 594.43432999 1241.98442125 C499.42666421 1261.514711 403.08378066 1275.06027884 149.42499161 1291.22264147 C146.93669772 1291.30652214 144.44848096 1291.39238877 141.96026993 1291.47868395 C119.74117021 1292.23697627 97.50918486 1292.52444874 75.28030777 1292.84331942 C73.04380441 1292.87597645 70.80733434 1292.91032684 68.57086563 1292.9452672 C3.07570177 1293.95538197 -62.43412352 1293.21233313 -127.92774189 1292.48088771 C-135.19331873 1292.39993264 -142.45892067 1292.32165584 -149.72454453 1292.24504137 C-150.75183446 1292.23420841 -151.77912439 1292.22337546 -152.83754432 1292.21221423 C-154.37647588 1292.19598722 -154.37647588 1292.19598722 -155.94649696 1292.17943239 C-203.7389601 1291.67537624 -251.52917862 1291.09106898 -299.31805038 1290.31510973 C-300.38777273 1290.29795853 -301.45749508 1290.28080732 -302.55963326 1290.26313639 C-305.61094942 1290.21420037 -308.66225536 1290.16467371 -311.7135582 1290.11491442 C-312.58681779 1290.10091002 -313.46007738 1290.08690563 -314.35979939 1290.07247686 C-396.46020836 1288.71471925 -478.66253505 1283.0318285 -956.31805038 1203.31510973 C-958.70701757 1202.55227603 -961.09633317 1201.7905325 -963.48601913 1201.02995348 C-993.71252086 1191.30620536 -1022.53353636 1178.6161901 -1051.31805038 1165.31510973 C-1052.01080063 1164.9952611 -1052.70355087 1164.67541246 -1053.41729355 1164.34587145 C-1090.59535782 1147.1512169 -1122.74991613 1125.85828146 -1152.61004257 1097.90544176 C-1154.41184902 1096.22777349 -1156.227038 1094.56551764 -1158.04461288 1092.90495348 C-1166.23166932 1085.39693069 -1173.96790966 1077.64407656 -1181.31805038 1069.31510973 C-1181.7763121 1068.80157946 -1182.23457382 1068.28804918 -1182.70672226 1067.75895739 C-1222.34159169 1023.16270181 -1231.48623259 971.20370684 -1231.69305038 913.19010973 C-1231.70099625 912.0110103 -1231.70894211 910.83191088 -1231.71712875 909.61708117 C-1232.06832579 841.74397379 -1199.23559499 777.64892451 -1159.31805038 724.31510973 C-1158.51006165 723.22187458 -1157.70271725 722.12816276 -1156.89617538 721.03385973 C-1144.70716149 704.60894739 -1131.75871308 688.96179716 -1117.83782578 673.97843981 C-1116.72272645 672.75801062 -1115.62239141 671.52404827 -1114.53069687 670.28263903 C-1107.92103233 662.79760475 -1100.90363894 655.74858707 -1093.83391953 648.70060778 C-1091.75259849 646.62466547 -1089.67670226 644.54340551 -1087.60125351 642.4615941 C-1086.25587101 641.11687221 -1084.91017844 639.77246044 -1083.56414413 638.42839098 C-1082.95558075 637.81780336 -1082.34701736 637.20721575 -1081.72001266 636.57812548 C-1077.97466752 632.85275687 -1074.11000276 629.31575366 -1070.108181 625.86712694 C-1067.51519959 623.61904976 -1065.01675618 621.2792189 -1062.50555038 618.94010973 C-1057.86113441 614.64956103 -1053.08046239 610.58638559 -1048.15398788 606.61979723 C-1045.61556931 604.55689509 -1043.11927734 602.45625887 -1040.63323593 600.33122301 C-1033.35625468 594.1118981 -1025.89193774 588.16765905 -1018.31805038 582.31510973 C-1017.66320663 581.8072191 -1017.00836288 581.29932848 -1016.33367538 580.77604723 C-1005.49866437 572.38098144 -994.48584309 564.2612885 -983.31805038 556.31510973 C-982.55186386 555.76774157 -981.78567734 555.2203734 -980.99627304 554.65641832 C-913.89557336 506.79916592 -840.62172068 466.70242011 -765.36645126 433.22862291 C-763.33452444 432.32245657 -761.30510583 431.41091616 -759.27654648 430.49723864 C-671.18155901 390.8205447 -579.74334681 357.50908646 -175.31805038 277.31510973 C-174.55726181 277.27274187 -173.79647324 277.23037401 -173.01263046 277.18672228 C-155.11848269 276.20817695 -137.23288047 276.11165626 -119.31805038 276.12760973 C-118.56794064 276.12802389 -117.81783089 276.12843805 -117.04499054 276.12886477 C-93.08756254 276.14539358 -69.20871036 276.36121441 -45.31805038 278.31510973 C-43.84773361 278.43529467 -43.84773361 278.43529467 -42.34771347 278.55790758 C147.34490307 294.25413634 147.34490307 294.25413634 240.68194962 354.31510973 C241.30585587 354.96866442 241.92976212 355.6222191 242.57257462 356.29557848 C249.06979426 363.99051791 252.37887648 374.53756479 251.95538712 384.52214098 C251.68194962 386.31510973 251.68194962 386.31510973 250.68194962 387.31510973 C246.7025386 388.01150666 244.10893007 387.2878342 240.74444962 385.25260973 C236.88329785 382.53622155 233.71642843 379.37270291 230.46124649 375.98405504 C178.64765504 322.07134886 63.50490495 314.87992485 -6.88055038 308.06510973 C-7.66752304 307.98788683 -8.4544957 307.91066393 -9.26531601 307.83110094 C-15.27751878 307.25020414 -21.29461431 306.76365839 -27.31805038 306.31510973 C-28.47077438 306.22790667 -29.62349838 306.1407036 -30.81115341 306.05085802 C-54.82321031 304.29074812 -78.77942718 303.9512441 -102.84977722 303.99705172 C-105.86515227 304.00269793 -108.88052167 304.00551502 -111.89590073 304.00813341 C-141.1692817 304.04506165 -170.31353819 304.44438621 -199.48907089 307.06187487 C-202.44937589 307.32686527 -205.41046832 307.58143373 -208.37176132 307.83512926 C-307.7307946 316.4507535 -405.9581957 335.89943788 -725.31805038 447.31510973 C-726.28436386 447.75210192 -727.25067734 448.1890941 -728.24627304 448.63932848 C-735.28737134 451.82775035 -742.30774997 455.05957403 -749.31805038 458.31510973 C-750.26064713 458.75273638 -750.26064713 458.75273638 -751.22228622 459.19920397 C-777.91533583 471.59936031 -804.36938664 484.41052318 -830.31805038 498.31510973 C-831.67712509 499.03899889 -831.67712509 499.03899889 -833.06365585 499.77751207 C-847.36334708 507.39937001 -861.44109177 515.34340795 -875.39080429 523.58757067 C-878.27235888 525.2881445 -881.15961128 526.97862623 -884.04851913 528.66667223 C-895.96321425 535.6434008 -907.69717404 542.86025618 -919.31805038 550.31510973 C-920.71382275 551.20452833 -922.10965471 552.09385343 -923.50555038 552.98307848 C-935.27778542 560.51223838 -946.81757821 568.37868165 -958.31805038 576.31510973 C-959.45524521 577.0982152 -959.45524521 577.0982152 -960.61541367 577.89714098 C-972.00540023 585.76196431 -983.02379008 594.08279582 -993.98992538 602.52604723 C-995.96872085 604.04666522 -997.95319234 605.55902451 -999.94305038 607.06510973 C-1016.53135085 619.67221808 -1032.52300338 633.15710728 -1047.94695663 647.16276598 C-1049.59360041 648.65749534 -1051.24781775 650.14390688 -1052.90789413 651.62370348 C-1057.2787811 655.52135155 -1061.52439024 659.47655567 -1065.62664413 663.65495348 C-1067.35894212 665.35524596 -1069.15827152 666.92843985 -1071.00555038 668.50260973 C-1078.62891803 675.08777556 -1085.76415819 682.32891303 -1092.28680038 690.00260973 C-1094.57841315 692.61152273 -1096.95130707 695.13220788 -1099.33440781 697.65739489 C-1105.6296798 704.33056512 -1111.5954192 711.14018055 -1117.31805038 718.31510973 C-1118.30950906 719.51730835 -1119.30314868 720.7177104 -1120.29851913 721.91667223 C-1172.17991897 784.60669703 -1214.19617663 865.61155999 -1208.11590195 949.09050035 C-1205.37283632 976.14851379 -1196.10712655 1002.45298937 -1183.31805038 1026.31510973 C-1182.7577916 1027.38342028 -1182.7577916 1027.38342028 -1182.18621445 1028.47331285 C-1172.93591185 1046.08046667 -1161.75704775 1061.66686837 -1148.31805038 1076.31510973 C-1147.51109726 1077.20585192 -1146.70414413 1078.0965941 -1145.87273788 1079.01432848 C-1138.49894077 1086.77556239 -1129.92110217 1093.00216075 -1121.31805038 1099.31510973 C-1120.63323593 1099.82332262 -1119.94842148 1100.33153551 -1119.24285507 1100.85514879 C-1107.45446935 1109.57571365 -1095.06406183 1117.08328416 -1082.31805038 1124.31510973 C-1081.39701523 1124.84217516 -1080.47598007 1125.36924059 -1079.52703476 1125.9122777 C-998.87895067 1171.81725759 -904.98948761 1195.96244175 -806.05303574 1215.77201891 C-803.44978532 1216.28895089 -800.84803525 1216.81274639 -798.24676132 1217.33952379 C-722.71006974 1232.61139869 -646.20420279 1243.24491723 -569.31805038 1248.31510973 C-568.4833799 1248.37042109 -567.64870941 1248.42573244 -566.78874588 1248.4827199 C-449.88405629 1256.22775719 -332.82404344 1261.41413501 -139.31805038 1268.31510973 C-138.41704353 1268.34113268 -137.51603668 1268.36715563 -136.58772659 1268.39396715 C-54.36209855 1270.75805938 27.70671659 1271.14989346 822.64392471 1159.01896715 C824.6589095 1158.32306692 826.6749744 1157.63037391 828.69122696 1156.9381566 C889.11824112 1136.15002157 948.96484177 1110.81400192 1004.27472305 1078.70231676 C1007.12492337 1077.05983824 1010.00071479 1075.46774169 1012.88165665 1073.88005114 C1040.24384092 1058.74514779 1066.66277455 1041.06111914 1091.68194962 1022.31510973 C1092.25574356 1021.88617418 1092.82953751 1021.45723864 1093.42071915 1021.01530504 C1111.20884666 1007.65991862 1128.23789639 993.28577578 1144.68194962 978.31510973 C1145.90591446 977.23036364 1145.90591446 977.23036364 1147.15460587 976.12370348 C1154.50615983 969.53374935 1161.50680136 962.59859679 1168.49444962 955.62760973 C1169.24424591 954.88169573 1169.24424591 954.88169573 1170.00918961 954.12071276 C1175.78856166 948.36492901 1181.37733279 942.51334558 1186.68194962 936.31510973 C1188.09518512 934.77029713 1189.51135371 933.22815648 1190.93194962 931.69010973 C1195.48436808 926.64470518 1199.65688229 921.35611966 1203.81476212 915.98698473 C1205.67166604 913.59285537 1207.55863185 911.23045475 1209.48663712 908.89323473 C1272.75315067 832.00624571 1308.86747172 730.43615111 1299.55694962 630.62760973 C1292.43280809 561.90704459 1264.17934705 498.51726104 1217.09601212 447.94010973 C1215.81928914 446.55182843 1214.54800383 445.15736316 1213.32721329 443.71965075 C1207.77223975 437.18780696 1201.69947502 431.18170443 1195.63043594 425.13322496 C1193.74866687 423.25681498 1191.87230224 421.37512004 1189.99640274 419.4928441 C1184.06111792 413.55387103 1178.11089362 407.72435854 1171.68194962 402.31510973 C1170.45491898 401.24682711 1169.22966736 400.17649781 1168.00616837 399.10417223 C1156.18441379 388.8064096 1144.07312637 378.91941271 1131.68194962 369.31510973 C1130.88401993 368.69652086 1130.08609024 368.077932 1129.26398087 367.44059801 C1118.57057364 359.17181168 1107.79214033 351.12944907 1096.57062149 343.5919652 C1094.68573448 342.31766853 1092.81483732 341.02522813 1090.94757462 339.72526598 C1072.60157432 326.96047107 1053.76684741 314.94053117 1034.68194962 303.31510973 C1033.24045547 302.43387438 1033.24045547 302.43387438 1031.76984024 301.53483629 C1015.64137217 291.69134231 999.25803947 282.38160362 982.68194962 273.31510973 C981.69436661 272.77176989 980.7067836 272.22843004 979.68927383 271.66862535 C938.92359491 249.2409502 897.21256869 228.62103458 854.56866837 210.01676989 C851.20162601 208.54609711 847.84585776 207.05159804 844.49444962 205.54557848 C793.00504181 182.45698686 740.08727015 162.49362142 686.68194962 144.31510973 C685.61433395 143.95117113 685.61433395 143.95117113 684.5251503 143.57988024 C673.26969689 139.74642102 661.98469452 136.00658148 650.68194962 132.31510973 C649.86140091 132.04654161 649.0408522 131.7779735 648.19543839 131.50126696 C599.53400331 115.58328567 550.34208754 101.75486699 500.68194962 89.31510973 C499.64332779 89.05427599 498.60470596 88.79344225 497.53461075 88.52470446 C399.90186471 64.03648478 300.52717263 46.50961412 123.49444962 32.19010973 C122.7219487 32.15140764 121.94944778 32.11270555 121.15353775 32.07283068 C116.29198738 31.83315332 111.42976076 31.62161025 106.56610489 31.42939806 C104.56266435 31.35000917 102.55933286 31.267839 100.55609512 31.18348742 C73.14899157 30.05510917 45.73281465 30.11420324 18.30694962 30.12760973 C17.08441105 30.12787661 15.86187248 30.12814348 14.60228729 30.12841845 C-21.21565897 30.13823145 -56.97888201 30.24548118 -92.75597763 32.12828112 C-95.93597563 32.29507013 -99.11619142 32.45682109 -102.29654694 32.61662626 C-181.95573334 36.626421 -261.35592564 43.79208305 -585.77630234 100.70164537 C-588.30342207 101.31157911 -590.83123227 101.91859218 -593.35906601 102.52555895 C-617.76602747 108.40317361 -641.98384445 114.92322754 -666.18547821 121.58549929 C-687.62568645 127.48550603 -709.11057389 133.14591311 -730.69305038 138.50260973 C-731.34842033 138.66538912 -732.00379028 138.82816851 -732.67901993 138.9958806 C-741.88999966 141.28318395 -751.10462526 143.55560784 -760.32040024 145.82350206 C-771.69709344 148.62322633 -783.07251019 151.4279857 -794.44305038 154.25260973 C-795.71071243 154.56749346 -796.97837448 154.88237719 -798.28445053 155.20680285 C-814.12576853 159.15222786 -829.86347688 163.24132218 -845.42351913 168.19010973 C-865.05916602 174.33970986 -884.87718764 179.15265477 -905.00555038 183.37760973 C-933.53831251 189.30908797 -933.53831251 189.30908797 -961.40281296 197.75787401 C-963.31805038 198.31510973 -963.31805038 198.31510973 -966.31805038 198.31510973 C-963.89539867 192.20416828 -957.56804223 189.82889418 -951.89226913 187.18522692 C-949.38559864 186.13189197 -946.86223488 185.14928213 -944.31805038 184.19010973 C-943.33642929 183.81378405 -942.3548082 183.43745836 -941.34344101 183.04972887 C-926.7715963 177.5204339 -912.04824963 172.40352997 -897.31805038 167.31510973 C-896.45057175 167.01542284 -895.58309311 166.71573595 -894.68932724 166.40696764 C-845.86862299 149.55738306 -796.74061356 133.66813922 -747.43810654 118.28910875 C-744.58824714 117.39945801 -741.73939157 116.50667477 -738.89080429 115.61296129 C-697.1427705 102.54306574 -654.62318097 92.03116337 -612.17734528 81.49600267 C-610.27057439 81.021886 -608.36450247 80.54496098 -606.45846176 80.06791735 C-562.34489348 69.05143948 -517.69376617 60.2286983 -473.13055038 51.25260973 C-471.94723381 51.01397959 -470.76391724 50.77534945 -469.54474258 50.52948809 C-433.87915515 43.33757536 -398.22272681 36.22404978 -362.31805038 30.31510973 C-361.28557175 30.14380541 -360.25309311 29.97250109 -359.18932724 29.79600573 C-325.66352287 24.23408867 -292.04133291 19.50793448 -258.31805038 15.31510973 C-257.36599716 15.19629442 -256.41394394 15.07747911 -255.43304062 14.95506334 C-218.35450324 10.34178078 -181.12956871 7.04543504 -143.86101913 4.40495348 C-142.59129005 4.31438425 -142.59129005 4.31438425 -141.29590988 4.22198534 C-94.21530465 0.97464013 -47.18164148 -0.06612696 0 0 Z " fill="#C93341" transform="translate(1231.3180503845215,-0.3151097297668457)"/>
<path d="M0 0 C1.14984375 -0.01611328 2.2996875 -0.03222656 3.484375 -0.04882812 C9.7240238 -0.05242239 14.56991201 0.09831142 20 3.3125 C23.32283088 8.40750735 24.12291404 13.45670794 24.13142776 19.44446087 C24.13526891 20.46191724 24.13911005 21.4793736 24.1430676 22.52766198 C24.14220112 23.63854253 24.14133463 24.74942308 24.14044189 25.89396667 C24.14341302 27.07949688 24.14638414 28.26502708 24.1494453 29.48648244 C24.15661736 32.77374592 24.15930398 36.06097753 24.16004276 39.34824765 C24.16189611 42.89508404 24.16944488 46.44190916 24.17617798 49.98873901 C24.18975062 57.74299774 24.19578439 65.49725129 24.20018864 73.25151992 C24.20295295 78.09516938 24.20719065 82.93881686 24.21169281 87.78246498 C24.22388423 101.19834232 24.2341837 114.61421806 24.2375679 128.03010082 C24.23789725 129.3176763 24.23789725 129.3176763 24.23823325 130.63126339 C24.23845153 131.49167817 24.23866981 132.35209294 24.2388947 133.23858088 C24.23933816 134.98205197 24.23978473 136.72552306 24.24023438 138.46899414 C24.24056652 139.76622157 24.24056652 139.76622157 24.24090537 141.08965562 C24.24485232 155.09880223 24.26230375 169.1078968 24.2855939 183.11702331 C24.30932339 197.50680987 24.32177048 211.89657033 24.32293582 226.28637677 C24.3238517 234.36295076 24.32958198 242.43945692 24.34775543 250.51601219 C24.36317802 257.39418687 24.36826419 264.27227277 24.36001733 271.15046146 C24.3561184 274.65753845 24.35700311 278.16443677 24.37107468 281.67149162 C24.38377927 285.47985275 24.37792475 289.28775706 24.36749268 293.09611511 C24.37554908 294.19584205 24.38360548 295.29556899 24.39190602 296.42862099 C24.33615779 305.14632049 23.08645467 313.71027257 17.58984375 320.77734375 C8.46801278 329.58540166 -2.97495344 328.72370571 -14.76953125 328.60546875 C-22.62113296 328.37100376 -29.52563409 326.65494482 -37 324.3125 C-52.04110777 320.06175215 -66.32688118 322.37485357 -80.2421875 329.109375 C-103.08960872 339.07680522 -131.56731137 335.63055268 -154.14550781 327.13793945 C-165.44933314 322.68627997 -174.2973365 316.77062585 -183 308.3125 C-183.74894531 307.63703125 -184.49789063 306.9615625 -185.26953125 306.265625 C-208.6156148 284.51410758 -216.97581774 250.7709059 -218.12597656 219.93505859 C-219.05283375 176.69541109 -213.26854338 136.99440999 -182.5625 104.5625 C-164.7047515 87.43863157 -139.64015856 79.89794335 -115.4375 80 C-114.77458954 80.00115814 -114.11167908 80.00231628 -113.42868042 80.00350952 C-102.952634 80.0396703 -93.20229729 80.90558183 -83 83.3125 C-67.12568428 87.33575995 -67.12568428 87.33575995 -51.4375 84.75 C-42.59000576 75.90250576 -42.15242173 63.21892966 -41.51171875 51.3984375 C-41.47278503 50.69301315 -41.43385132 49.98758881 -41.39373779 49.26078796 C-41.20135353 45.67318624 -41.03675537 42.08684281 -40.90966797 38.49633789 C-40.48010209 28.23437642 -38.782749 22.9491468 -31.6875 15.375 C-28.23767237 11.67673961 -24.99530461 7.90432183 -21.8984375 3.90625 C-15.95184001 -1.0859553 -7.28747148 -0.02042453 0 0 Z M-136 143.3125 C-153.66500555 166.65412532 -155.69587295 201.02218669 -151.8125 229.125 C-148.82797073 248.72002834 -142.23678239 266.86260063 -126 279.3125 C-113.47299857 287.35918609 -100.64972242 289.07858783 -86.08984375 286.6640625 C-71.69589856 282.93407006 -61.74195067 274.97993925 -53.8125 262.5625 C-45.69221145 248.19245008 -41.48924399 230.80409937 -41 214.3125 C-40.97421875 213.56726074 -40.9484375 212.82202148 -40.921875 212.05419922 C-40.18407141 187.89574285 -41.85314389 161.05931885 -58.16796875 141.74609375 C-68.88626334 130.54815086 -81.23008146 125.98101902 -96.7109375 125.27734375 C-111.17995947 125.43200075 -125.88415696 133.19665696 -136 143.3125 Z " fill="#CD3936" transform="translate(1921,528.6875)"/>
<path d="M0 0 C24.07496777 20.97328481 38.72086079 50.2968445 41.63867188 82.21533203 C42.15336804 91.95026164 42.46163359 102.47695439 36.1015625 110.51171875 C27.49045851 118.53463258 14.92065592 117.99113175 3.96386719 117.9855957 C2.84080673 117.98907013 1.71774628 117.99254456 0.56065369 117.99612427 C-1.86792766 118.00345104 -4.29651556 118.00881274 -6.72510529 118.01241493 C-10.576862 118.01961653 -14.42849398 118.03531051 -18.2802124 118.05375671 C-29.22829396 118.10605436 -40.17630709 118.15461828 -51.12451172 118.16967773 C-57.83176999 118.17899786 -64.53866513 118.20918864 -71.24581146 118.25099754 C-73.79250429 118.26326376 -76.33924206 118.26843686 -78.88596344 118.26619911 C-82.45849752 118.26383216 -86.03012767 118.28611878 -89.60253906 118.3137207 C-90.6408638 118.30711929 -91.67918854 118.30051788 -92.74897766 118.29371643 C-101.28201147 118.40124411 -109.15999692 120.26650862 -116.578125 124.59375 C-122.28266583 131.01135843 -123.23990414 136.82884503 -122.95703125 145.37890625 C-121.64459483 157.38025788 -114.01728175 166.35611319 -105.10546875 173.98828125 C-98.7597831 178.64701492 -91.30670594 182.26940944 -83.578125 183.84375 C-82.56492187 184.0603125 -82.56492187 184.0603125 -81.53125 184.28125 C-68.53112781 186.37522941 -52.05863762 182.22131536 -41.05859375 175.24609375 C-37.24155244 172.39144105 -33.93316257 169.21808204 -30.640625 165.78125 C-22.94205031 157.86797402 -12.41446767 152.45836511 -1.390625 151.59375 C6.94182124 152.14013992 13.6806413 155.03722015 20.421875 159.84375 C21.30875 160.441875 22.195625 161.04 23.109375 161.65625 C27.06674798 165.39971093 29.73426867 169.64340974 31.359375 174.84375 C31.5828036 185.56832273 25.37827804 193.94568587 18.25244141 201.43554688 C-6.13722626 226.06840518 -39.04498823 235.73556591 -73.12255859 236.08520508 C-108.05443948 236.16187734 -139.86991031 227.77292789 -165.578125 202.84375 C-166.24972656 202.245625 -166.92132812 201.6475 -167.61328125 201.03125 C-188.54079684 181.72634496 -197.35678738 150.08641674 -198.74658203 122.5 C-200.00074095 84.21404414 -194.30836081 42.3680263 -168.17578125 12.51953125 C-163.96348564 8.18055005 -159.40290015 4.47596067 -154.578125 0.84375 C-153.72734375 0.16699219 -152.8765625 -0.50976562 -152 -1.20703125 C-110.58022457 -33.13994195 -40.37438282 -33.76766563 0 0 Z M-116.578125 44.84375 C-119.77059113 49.78692337 -121.24281432 55.08189129 -120.2109375 60.921875 C-118.50548363 66.43828136 -115.42740591 69.80053274 -110.578125 72.84375 C-101.17303102 77.43625299 -92.62553882 78.05582822 -82.2980957 78.08398438 C-80.17813178 78.09358023 -78.05918543 78.12458636 -75.93945312 78.15625 C-63.29505662 78.25508053 -50.39289085 77.06064854 -39.578125 69.84375 C-35.38599314 65.44712391 -34.15213043 62.36804172 -34.23828125 56.4140625 C-35.30133305 48.37396958 -40.38442526 41.77689245 -46.578125 36.84375 C-68.25309196 20.97935619 -99.25307493 23.73017546 -116.578125 44.84375 Z " fill="#F03535" transform="translate(1008.578125,624.15625)"/>
<path d="M0 0 C20.57207378 17.51446397 33.16824949 38.0735188 40.10498047 64.08496094 C40.61166805 65.95308888 41.17097957 67.8068296 41.7421875 69.65625 C43.76194863 76.77708226 44.00918706 83.76050251 44.08203125 91.1171875 C44.0960498 92.0966333 44.11006836 93.0760791 44.12451172 94.08520508 C44.07949953 100.85492359 43.45785085 106.75996047 39.1640625 112.29296875 C29.24468059 120.28030953 18.51319121 120.45019121 6.21728516 120.46240234 C5.09101212 120.46748306 3.96473907 120.47256378 2.80433655 120.47779846 C0.36920563 120.48846164 -2.06593484 120.49709754 -4.50107956 120.50391769 C-8.36068496 120.51576087 -12.22018119 120.53522665 -16.07974243 120.55703735 C-27.04986909 120.61847861 -38.01998266 120.67293038 -48.99023438 120.70605469 C-55.71040596 120.72643377 -62.43034787 120.76236588 -69.1504097 120.80681229 C-71.70433794 120.82093742 -74.25830198 120.82968681 -76.8122673 120.83286667 C-80.38987091 120.83779373 -83.96693937 120.86099765 -87.54443359 120.88818359 C-88.58994888 120.88517746 -89.63546417 120.88217133 -90.71266174 120.8790741 C-99.20426208 120.97454669 -106.43637339 122.10984288 -113.29296875 127.3046875 C-113.95296875 127.3046875 -114.61296875 127.3046875 -115.29296875 127.3046875 C-115.9807128 128.62727222 -116.64008248 129.96455253 -117.29296875 131.3046875 C-117.82921875 132.3153125 -118.36546875 133.3259375 -118.91796875 134.3671875 C-122.09228471 142.00182436 -120.7129184 150.09879693 -117.67578125 157.54296875 C-110.7758305 171.32337887 -99.72886882 180.2223236 -85.29296875 185.3046875 C-71.54434435 189.07913462 -56.06670994 186.4868507 -43.29296875 180.3046875 C-40.83917075 178.8159503 -38.49005811 177.26029467 -36.16796875 175.57421875 C-34.29296875 174.3046875 -34.29296875 174.3046875 -31.29296875 173.3046875 C-31.00164062 172.71558594 -30.7103125 172.12648438 -30.41015625 171.51953125 C-26.05201402 162.87943808 -14.98876692 158.19897991 -6.29296875 155.3046875 C3.06209492 152.65606693 11.64828699 155.3928385 19.89453125 159.9921875 C25.69354021 163.67250342 30.02392164 168.07872741 33.20703125 174.1796875 C34.53115021 182.455431 32.86921187 188.43199381 28.11328125 195.3125 C7.49208411 220.95509255 -19.35908133 232.81817248 -51.29296875 237.3046875 C-51.95337158 237.39967529 -52.61377441 237.49466309 -53.29418945 237.5925293 C-87.4890442 241.97607963 -123.993657 236.2862099 -152.00219727 215.20849609 C-177.96528011 194.8557045 -190.98117281 167.59059578 -195.16796875 135.1796875 C-199.43596289 97.77319544 -194.53915674 54.62053049 -172.09765625 23.234375 C-169.91260819 20.50116157 -167.65262356 17.88810268 -165.29296875 15.3046875 C-164.26429687 14.15419922 -164.26429687 14.15419922 -163.21484375 12.98046875 C-123.65741112 -28.99436254 -45.76034866 -35.26359702 0 0 Z M-113.29296875 46.3046875 C-116.9187249 51.17833262 -117.94859823 55.87357397 -117.6796875 61.91015625 C-116.89461672 66.7712511 -114.60187941 69.91644892 -111.23046875 73.4921875 C-101.23578309 79.6591212 -90.95343728 80.51250796 -79.49511719 80.54492188 C-77.45854735 80.55449672 -75.42304656 80.58549368 -73.38671875 80.6171875 C-61.11582181 80.71582591 -46.14273864 80.23807456 -36.51953125 71.73828125 C-32.83451183 67.87160595 -31.19824754 64.79851742 -31.29296875 59.3046875 C-32.64773388 50.13001222 -38.90969436 43.96084595 -45.7890625 38.22265625 C-66.35911551 22.97963725 -96.37353769 27.41788073 -113.29296875 46.3046875 Z " fill="#DE3736" transform="translate(1645.29296875,621.6953125)"/>
<path d="M0 0 C14.61868732 13.7600596 20.47416255 32.91111754 21.47593498 52.57549095 C21.58395555 56.85038334 21.58636156 61.12511317 21.58764648 65.40112305 C21.59528652 67.03211844 21.60371711 68.66311029 21.61286926 70.2940979 C21.63462411 74.68436258 21.64358584 79.07455775 21.64869571 83.46487021 C21.65235828 86.21402844 21.65860763 88.96316893 21.6656971 91.71232033 C21.69011364 101.32002171 21.70322909 110.92766958 21.70678711 120.53540039 C21.71042885 129.46687103 21.74038984 138.39799947 21.78219169 147.32936543 C21.81693304 155.02399953 21.83233612 162.71852019 21.83303314 170.41323215 C21.83382384 174.99771049 21.84246932 179.58183829 21.87103081 184.16623497 C21.89728184 188.47488946 21.89937785 192.78290408 21.88337517 197.09160233 C21.88156698 198.6661208 21.8881942 200.24067676 21.90419388 201.81511497 C21.98711315 210.50890366 21.91177915 218.62339648 16.28125 225.75390625 C7.04999387 232.72379666 -3.6276715 232.46484117 -14.71875 231.75390625 C-21.77501256 230.75944852 -28.37267697 228.88658011 -35.09375 226.56640625 C-51.70784953 221.34425603 -67.1053355 226.49395544 -82.72509766 232.60083008 C-108.09916389 242.26699364 -138.51202877 240.96722717 -163.32421875 230.1875 C-170.821453 226.39933123 -176.82661878 221.70871972 -182.71875 215.75390625 C-183.34265625 215.16351562 -183.9665625 214.573125 -184.609375 213.96484375 C-195.18475988 203.15127452 -200.92631283 186.61810645 -201.71875 171.75390625 C-201.77160156 170.80128906 -201.82445312 169.84867188 -201.87890625 168.8671875 C-202.4458701 148.82624811 -196.28653476 131.59540142 -182.71875 116.75390625 C-182.19023437 116.14546875 -181.66171875 115.53703125 -181.1171875 114.91015625 C-158.41961889 90.31180603 -121.10771376 83.66069065 -89.82128906 78.19262695 C-74.61413914 75.52057297 -60.29487398 72.90865096 -50.71875 59.75390625 C-48.29097799 54.89836223 -49.12747404 48.06116788 -50.4375 42.94921875 C-53.63141091 34.47505189 -58.45866906 28.69816635 -66.71875 24.75390625 C-77.21552534 21.14129765 -89.67815123 21.3356238 -100.0390625 25.37890625 C-104.84342209 27.844117 -108.67532552 31.21305431 -112.71875 34.75390625 C-129.04110438 48.52304318 -129.04110438 48.52304318 -136.71875 50.75390625 C-137.42257812 50.97304688 -138.12640625 51.1921875 -138.8515625 51.41796875 C-150.71429221 54.43391698 -165.7747871 54.56053781 -176.71875 48.75390625 C-181.05675209 45.60334844 -182.62020194 41.2269831 -183.4921875 36.09765625 C-184.40421933 26.66284423 -181.16957825 18.5626143 -175.42236328 11.06201172 C-158.82168501 -9.04738134 -136.07687993 -16.87570625 -110.69287109 -19.56689453 C-74.60477273 -22.99480211 -29.74516627 -24.57395202 0 0 Z M-116.71875 133.75390625 C-117.62625 134.35203125 -118.53375 134.95015625 -119.46875 135.56640625 C-126.12690883 142.03961622 -129.96886401 149.96907145 -131.15625 159.12890625 C-130.0808527 168.03934102 -126.77390242 176.00433364 -119.71875 181.75390625 C-108.63462036 188.48670648 -98.44170665 190.44152345 -85.71875 187.62890625 C-71.51765481 183.66580992 -60.61618251 174.95905137 -53.12109375 162.33203125 C-48.11169464 153.122551 -45.56620052 142.76761454 -48.3671875 132.33984375 C-50.86230382 126.8164666 -54.99261091 122.36520964 -60.59765625 119.94140625 C-78.81145968 114.64284525 -101.67983616 123.42023674 -116.71875 133.75390625 Z " fill="#CF3936" transform="translate(449.71875,623.24609375)"/>
<path d="M0 0 C5.04087454 4.25939818 7.94997876 8.57350541 9.859375 14.86328125 C9.71599641 22.89248253 6.43871458 29.69841375 0.796875 35.36328125 C-7.3688348 42.07554756 -15.32893661 44.95374706 -25.88671875 44.046875 C-34.27910563 42.72438787 -41.77288653 40.14245995 -49.61376953 36.92553711 C-59.44016037 32.94068544 -69.6149651 30.96227865 -80.203125 30.36328125 C-80.98816406 30.29882812 -81.77320313 30.234375 -82.58203125 30.16796875 C-91.44717976 29.74107556 -100.91656417 32.20722004 -108.203125 37.36328125 C-111.67787418 41.94317989 -112.91661537 46.65535833 -112.203125 52.36328125 C-111.00444761 57.85365177 -108.85136795 61.57282118 -104.37109375 65 C-89.98244322 74.04799826 -71.10441407 77.07126231 -54.703125 80.30078125 C-26.56486863 85.90314218 -0.01316171 94.70810847 17.55078125 118.765625 C27.52572958 134.19054511 28.70967705 152.89270845 25.20703125 170.51220703 C20.52419277 191.91424228 8.82031956 208.30004826 -9.203125 220.36328125 C-29.78733156 233.01951564 -53.0256763 239.60773598 -77.203125 240.36328125 C-78.358125 240.40324219 -79.513125 240.44320313 -80.703125 240.484375 C-117.51713572 241.11526026 -158.00603865 234.42444354 -185.765625 208.30078125 C-190.69450374 203.00718632 -193.36452793 198.30058945 -193.765625 190.98828125 C-193.48290724 184.19363113 -191.10307895 178.63628753 -186.59375 173.546875 C-180.62323563 168.08303272 -173.50819644 164.39932114 -165.328125 164.34375 C-150.98304069 165.29411184 -139.39275341 170.29579477 -126.9375 177.1640625 C-110.14548479 186.11597015 -87.82080866 191.00125478 -69.203125 185.67578125 C-60.61955086 182.63948636 -55.77861912 179.11209503 -51.30859375 171.046875 C-48.93717148 165.2901008 -49.30310217 159.83205803 -51.640625 154.11328125 C-56.1215368 146.58429557 -64.64548866 143.40019261 -72.703125 141.11328125 C-73.64800781 140.83371582 -74.59289063 140.55415039 -75.56640625 140.26611328 C-87.75439505 136.76263007 -100.12556683 133.89269581 -112.47070312 131.00292969 C-125.46333275 127.94009958 -138.53425781 124.74445661 -150.453125 118.55078125 C-151.11586426 118.21095215 -151.77860352 117.87112305 -152.46142578 117.52099609 C-169.08677731 108.77526356 -180.82133568 97.19795513 -187.26171875 79.4453125 C-193.05855026 60.22423959 -189.34502294 40.36160427 -180.578125 22.67578125 C-168.12781901 1.22294631 -145.11654475 -11.46575703 -121.87890625 -17.859375 C-83.79015466 -27.83767678 -32.51477852 -23.59304051 0 0 Z " fill="#F43435" transform="translate(1260.203125,621.63671875)"/>
<path d="M0 0 C7.59248771 8.05916544 9.90503027 17.03887727 10.23925781 27.9128418 C10.61070281 38.81475255 11.68280937 50.07241584 20 58 C23.21827449 60.22167334 23.21827449 60.22167334 26.75 62.0625 C27.36617187 62.40337646 27.98234375 62.74425293 28.6171875 63.09545898 C31.28924872 64.56879609 33.98349829 65.99160607 36.703125 67.375 C43.84359168 71.06666985 48.29193564 75.2024867 50.9375 82.9375 C52.71775361 89.94195022 51.78422277 95.7951381 48.2578125 102.1328125 C44.18586761 108.17750088 38.46388832 110.82950876 32.0625 113.875 C22.60034449 118.40300866 15.7575292 123.89500622 12 134 C10.78893597 138.24302912 10.8371131 142.4026627 10.82299805 146.78491211 C10.81642685 147.67169647 10.80985565 148.55848083 10.80308533 149.47213745 C10.7833772 152.40720715 10.77169144 155.34222558 10.76171875 158.27734375 C10.75764322 159.2834778 10.7535677 160.28961185 10.74936867 161.32623482 C10.7285124 166.65799885 10.71421219 171.98973722 10.70483398 177.3215332 C10.69380745 182.80202628 10.65944968 188.2821091 10.61966228 193.76245785 C10.59337958 197.99812012 10.58513154 202.23368668 10.58155251 206.46942329 C10.57671181 208.48782668 10.56517059 210.50622652 10.54651451 212.52454948 C10.15123295 231.63129287 10.15123295 231.63129287 18.3125 248.4375 C19.5184873 249.64853327 20.74662852 250.83807622 22 252 C22.47695312 252.495 22.95390625 252.99 23.4453125 253.5 C26.88646256 256.81503461 30.71555858 258.9813185 34.89794922 261.21728516 C47.49032462 267.9523454 47.49032462 267.9523454 51 275 C51.3196875 275.60070312 51.639375 276.20140625 51.96875 276.8203125 C55.70931377 285.09804158 56.12229745 295.20499803 53.078125 303.71484375 C49.7614258 310.74480401 45.17425426 315.89618233 37.8671875 318.8671875 C16.03282061 326.63874182 -11.77775904 322.21372395 -32.375 312.6875 C-46.65943693 304.9811063 -56.33924044 292.80658246 -61.13194275 277.34928894 C-64.32154912 265.01830834 -64.56024137 252.93887388 -64.51642036 240.25780678 C-64.50360672 236.5260491 -64.51524594 232.7950114 -64.53245544 229.0632782 C-64.56165906 221.81607348 -64.56478876 214.56899358 -64.56280518 207.32174683 C-64.56130663 197.45548664 -64.57828701 187.58938066 -64.61894035 177.72319603 C-64.62868167 174.07244593 -64.6201149 170.42205846 -64.61024475 166.77131653 C-64.55258062 140.61192884 -64.55258062 140.61192884 -77.1875 118.375 C-80.18353475 115.57914575 -83.40774647 113.09743668 -86.625 110.5625 C-93.47881978 104.99670945 -97.5436178 99.49486598 -98.97265625 90.6484375 C-99.04482202 83.65866695 -95.82189761 76.92641846 -91.1015625 71.8671875 C-88.19402246 69.28390843 -85.09528377 66.97728714 -82 64.625 C-72.47039851 57.32586245 -67.7091773 50.09673546 -66 38 C-65.80811998 34.85611965 -65.72002037 31.71059321 -65.625 28.5625 C-65.28564767 18.38393818 -63.24459633 8.06351357 -55.93359375 0.4296875 C-41.28338296 -10.40258957 -14.74683873 -10.69868692 0 0 Z " fill="#E93535" transform="translate(1386,538)"/>
<path d="M0 0 C13.77479003 4.38329208 23.71131192 4.40108473 37.71875 0.28125 C45.42387996 -1.53540666 54.77813025 -2.32262269 62.1875 0.9375 C68.19263527 4.69735239 71.69796373 9.59336809 73.5625 16.375 C75.2932281 28.43426676 75.87552396 42.96409783 68.5625 53.375 C61.86443676 61.15923566 54.28535695 64.4764267 44.8125 67.75 C36.35183727 70.80476261 28.62081112 73.66627036 21.5625 79.375 C20.91925781 79.86871094 20.27601563 80.36242187 19.61328125 80.87109375 C12.84338904 86.759872 7.99430766 96.5958337 6.5625 105.375 C6.47179872 106.96172479 6.42535592 108.55145028 6.41773987 110.14074707 C6.41084137 111.07121857 6.40394287 112.00169006 6.39683533 112.96035767 C6.39422195 113.96924042 6.39160858 114.97812317 6.38891602 116.01757812 C6.3788855 117.62595047 6.3788855 117.62595047 6.36865234 119.26681519 C6.35461445 121.59394705 6.34271639 123.92109257 6.33270454 126.24824524 C6.31625406 129.94040852 6.29301127 133.63247167 6.26780701 137.32458496 C6.19716507 147.82213311 6.13711284 158.31972327 6.08569336 168.81738281 C6.0537461 175.24229197 6.01242612 181.66708735 5.96549797 188.09190369 C5.94956583 190.53171219 5.93720415 192.97154689 5.92859077 195.41139221 C5.79681017 232.22561003 5.79681017 232.22561003 -3.07421875 242.21875 C-14.24911913 252.46450136 -30.25973831 250.94678051 -44.4375 250.375 C-52.9382484 249.63212486 -58.55254701 247.54614851 -64.5625 241.3125 C-71.28645113 233.12375112 -72.58985205 222.4542062 -72.57794189 212.21737671 C-72.58091302 211.41217358 -72.58388414 210.60697046 -72.5869453 209.77736723 C-72.59559496 207.08773288 -72.59713738 204.39814323 -72.59863281 201.70849609 C-72.60326368 199.77636623 -72.6082887 197.84423727 -72.61367798 195.91210938 C-72.62677925 190.66802488 -72.63324266 185.42395317 -72.63768864 180.17985487 C-72.6406234 176.90022199 -72.644729 173.62059258 -72.64919281 170.34096146 C-72.66286257 160.07016497 -72.67253144 149.79937644 -72.6763947 139.52857149 C-72.68087246 127.69053523 -72.69840948 115.85261461 -72.7273953 104.01461351 C-72.74904654 94.85259497 -72.75910084 85.69060889 -72.76043582 76.52856505 C-72.7614815 71.06205204 -72.76733866 65.59564781 -72.78525543 60.12916183 C-72.80179537 54.9827229 -72.80386294 49.83647382 -72.79511642 44.6900177 C-72.79434918 42.80835586 -72.7986472 40.92668357 -72.80857468 39.04504776 C-72.94217858 12.12855822 -72.94217858 12.12855822 -63.90625 2.79296875 C-47.74840714 -12.29992537 -18.76368019 -6.05992445 0 0 Z " fill="#D93736" transform="translate(566.4375,606.625)"/>
<path d="M0 0 C12.35046144 4.42787706 22.42134868 3.40270875 34.90234375 -0.28515625 C44.10770187 -2.44397628 53.19108801 -2.40947857 61.75 1.8125 C67.11963973 5.18413425 69.71893779 9.98186491 71.33984375 16.00390625 C73.16377532 28.49349484 72.80079946 41.99952147 66.41796875 53.13671875 C59.9203225 61.77283086 48.44647741 65.27235029 38.625 68.8125 C25.17450168 73.68759963 14.2792672 80.02132518 7.875 93.3125 C4.16097361 101.72749685 3.4558682 110.00944711 3.47875977 119.10864258 C3.47091965 120.74956123 3.47091965 120.74956123 3.46292114 122.42362976 C3.45272528 124.78561288 3.44690849 127.14761819 3.44503975 129.50962257 C3.44135764 133.25649484 3.42457989 137.00310678 3.40428162 140.74992371 C3.35601372 150.05558922 3.32427968 159.36128959 3.30297852 168.66705322 C3.28493839 176.53668941 3.25542429 184.40613941 3.20893669 192.27567101 C3.19733864 194.75259102 3.1913568 197.22954431 3.19125557 199.70649147 C3.1910621 203.1805812 3.17269197 206.65416351 3.15063477 210.12817383 C3.15521194 211.13687531 3.15978912 212.14557678 3.164505 213.18484497 C3.05611461 224.00052017 1.1759779 234.5576544 -6.25 242.8125 C-16.76534606 252.41039976 -34.02160934 250.37786275 -47.25 249.8125 C-55.06510615 249.27412602 -60.69045456 247.51135068 -66.25 241.8125 C-75.35164675 230.73843372 -74.68436002 217.55606219 -74.63818359 204.01757812 C-74.64225333 202.01264663 -74.64759746 200.00771739 -74.65411377 198.00279236 C-74.66774529 192.57927599 -74.66250591 187.15593157 -74.65297651 181.73241234 C-74.64535833 176.04495164 -74.65243151 170.35750525 -74.65713501 164.67004395 C-74.66258627 155.12066008 -74.65541745 145.57134593 -74.64111328 136.02197266 C-74.62478802 124.99630347 -74.63007697 113.97080074 -74.6465925 102.94513559 C-74.66022528 93.46288842 -74.66211826 83.98069122 -74.65427649 74.4984374 C-74.64960984 68.84203458 -74.64894738 63.18570988 -74.65888596 57.52931213 C-74.6675794 52.21044216 -74.66149024 46.89178591 -74.64420319 41.57293892 C-74.64025105 39.62594011 -74.64135047 37.67892318 -74.64799118 35.73193169 C-74.72486385 10.89562672 -74.72486385 10.89562672 -65.25 0.8125 C-49.41573316 -13.13673507 -17.85207869 -6.48749206 0 0 Z " fill="#E33636" transform="translate(729.25,607.1875)"/>
<path d="M0 0 C1.30130859 -0.01160156 2.60261719 -0.02320313 3.94335938 -0.03515625 C5.20083984 -0.03128906 6.45832031 -0.02742187 7.75390625 -0.0234375 C8.89287354 -0.02005371 10.03184082 -0.01666992 11.20532227 -0.01318359 C16.19860425 0.5865081 19.2450613 2.04305482 22.60986328 5.80151367 C25.45706725 10.59356369 26.42061415 16.18245356 27.6796875 21.55078125 C27.9705423 22.74817429 28.26139709 23.94556732 28.56106567 25.179245 C29.48945388 29.0127197 30.40121825 32.84992692 31.3125 36.6875 C31.9168746 39.19492544 32.52233356 41.70208977 33.12890625 44.20898438 C35.49416673 54.00763514 37.85003942 63.80781096 40.11425781 73.63037109 C40.38110382 74.7753154 40.64794983 75.9202597 40.92288208 77.09989929 C41.42354818 79.25057185 41.9173697 81.40285385 42.40304565 83.55696106 C43.92454762 90.39735122 43.92454762 90.39735122 47.4375 96.375 C51.88142954 98.30310116 51.88142954 98.30310116 56.50587463 97.66168213 C64.01874121 92.65725874 65.43842769 79.47487953 67.36261177 71.24100494 C67.95318104 68.71526674 68.55924379 66.19367467 69.16917419 63.67254639 C70.45967235 58.32656268 71.73119258 52.97616708 73 47.625 C74.4751162 41.40469927 75.95813172 35.18649775 77.46122551 28.97289276 C78.05590119 26.49686451 78.63607941 24.01773235 79.2157135 21.53814697 C79.58263704 20.01386785 79.95023159 18.48975005 80.31860352 16.96582031 C80.47403122 16.28309555 80.62945892 15.60037079 80.78959656 14.8969574 C82.03336861 9.85014816 83.93461925 5.12701653 88.3125 2.0625 C94.84184975 -0.04993668 101.58730659 0.15792999 108.375 0.125 C109.43396484 0.104375 110.49292969 0.08375 111.58398438 0.0625 C117.63922029 0.03228048 122.15465582 0.29873155 127.4375 3.375 C129.64727977 6.68966965 129.6911097 7.71016441 129.70492554 11.56822205 C129.71772049 13.18125465 129.71772049 13.18125465 129.73077393 14.82687378 C129.72941437 16.59661057 129.72941437 16.59661057 129.72802734 18.40209961 C129.73474457 19.64456955 129.74146179 20.88703949 129.74838257 22.16716003 C129.76414304 25.57630778 129.77073857 28.98521194 129.77201414 32.39437938 C129.77391298 35.23986452 129.78127023 38.08532627 129.78835833 40.9308024 C129.80464564 47.64357759 129.80952693 54.35629912 129.80810547 61.0690918 C129.80690357 67.99528284 129.82801401 74.9211625 129.8595928 81.84727472 C129.8857363 87.793011 129.8964736 93.73864544 129.89519465 99.68443877 C129.89468449 103.23596964 129.90039714 106.78722377 129.92155075 110.33869743 C129.94449406 114.29875764 129.93542397 118.25838995 129.92333984 122.21850586 C129.93457886 123.39630615 129.94581787 124.57410645 129.95739746 125.78759766 C129.94900848 126.86577255 129.94061951 127.94394745 129.93197632 129.05479431 C129.93306585 129.9911267 129.93415539 130.92745909 129.93527794 131.89216518 C129.28696247 135.12585655 127.94398807 136.30432429 125.4375 138.375 C121.5024579 140.34252105 116.7269478 139.83922595 112.4375 139.375 C109.43552536 137.57381522 107.98583634 136.47167268 106.4375 133.375 C106.3265951 131.09514277 106.28091762 128.81203085 106.26391602 126.52954102 C106.257229 125.82515396 106.25054199 125.12076691 106.24365234 124.39503479 C106.22958563 122.86179406 106.21769675 121.32853218 106.20770454 119.79525948 C106.19127768 117.359844 106.16803275 114.92458183 106.14280701 112.48924255 C106.07212357 105.56330049 106.01227543 98.6372916 105.96069336 91.71118164 C105.92866246 87.47476529 105.88731492 83.23851858 105.84049797 79.00224113 C105.8246047 77.39532506 105.81222559 75.78836987 105.80359077 74.18139839 C106.22366587 58.71069096 106.22366587 58.71069096 101.4375 44.375 C98.25379958 43.28583933 95.51764054 42.8880356 92.4375 44.375 C90.20123359 49.32118103 88.83290495 54.56747609 87.32421875 59.76953125 C87.01989426 60.81567093 86.71556976 61.86181061 86.40202332 62.93965149 C83.95843604 71.41463861 81.65667578 79.92423206 79.39453125 88.44921875 C79.05140658 89.7392855 78.7082159 91.02933469 78.36495972 92.31936646 C76.96620436 97.5805483 75.56815648 102.84184375 74.19067383 108.10864258 C73.49752542 110.75754378 72.79784509 113.40454806 72.09074402 116.04975891 C71.43411861 118.5067579 70.78689904 120.96629623 70.15058899 123.42863464 C69.85315292 124.53201675 69.55571686 125.63539886 69.24926758 126.7722168 C68.99502518 127.73685349 68.74078278 128.70149017 68.47883606 129.69535828 C66.92527282 133.69310026 64.85271856 136.60454384 61.0625 138.66796875 C58.09879566 139.4662284 55.5063854 139.67575682 52.4375 139.6875 C51.426875 139.70425781 50.41625 139.72101563 49.375 139.73828125 C45.82151366 139.29882084 44.19728598 138.67633469 41.4375 136.375 C37.31490236 129.50418437 35.46934777 121.99279196 33.43292236 114.3155098 C32.80078876 111.93241198 32.15824461 109.5523279 31.51318359 107.17269897 C30.37661586 102.97319786 29.24917666 98.77131041 28.12475586 94.56854248 C26.32721109 87.85041847 24.5217666 81.13447385 22.70489502 74.42155075 C22.07713249 72.09333087 21.4569917 69.76317577 20.83740234 67.43276978 C18.12572062 53.8187571 18.12572062 53.8187571 10.4375 43.375 C7.9375 42.875 7.9375 42.875 5.4375 43.375 C1.64799473 46.60309708 1.09888632 51.6688014 0.4375 56.375 C0.17131224 61.4059569 0.11805823 66.42713055 0.10197449 71.46439552 C0.09361041 73.99933622 0.07304225 76.53392946 0.04943848 79.06877136 C-0.00665911 85.35599374 -0.04223346 91.64329997 -0.07818604 97.93066406 C-0.10943779 103.26318845 -0.14860352 108.59553912 -0.19844055 113.9279232 C-0.21847595 116.42290456 -0.22681783 118.9177511 -0.23474121 121.41279602 C-0.24771133 122.94032282 -0.2612313 124.46784509 -0.27539062 125.99536133 C-0.27440872 126.68684769 -0.27342682 127.37833405 -0.27241516 128.09077454 C-0.31853892 131.66097259 -0.49292056 134.39799951 -2.5625 137.375 C-7.75140746 140.24091458 -12.93192475 139.57225637 -18.5625 138.375 C-21.47769317 136.43153788 -22.30380055 135.41576001 -23.14008045 132.05136681 C-23.55564157 129.41845365 -23.69104546 126.96672136 -23.69621277 124.3031311 C-23.70047775 123.30508957 -23.70474274 122.30704803 -23.70913696 121.27876282 C-23.70868378 120.19499863 -23.70823059 119.11123444 -23.70776367 117.99462891 C-23.71112228 116.84446793 -23.7144809 115.69430695 -23.71794128 114.5092926 C-23.72744114 110.70670492 -23.72939389 106.90416131 -23.73046875 103.1015625 C-23.73368188 100.45746848 -23.73704599 97.81337465 -23.74055481 95.16928101 C-23.74694486 89.62619744 -23.74843779 84.08312581 -23.74780273 78.54003906 C-23.74720215 72.1433715 -23.75775252 65.74678833 -23.7735464 59.35014212 C-23.7882239 53.18478912 -23.7917901 47.01947646 -23.79119301 40.8541069 C-23.79237284 38.2362674 -23.79679482 35.61842726 -23.80452538 33.00059891 C-23.81432783 29.3383815 -23.81144607 25.67638109 -23.80541992 22.01416016 C-23.81103943 20.93444443 -23.81665894 19.8547287 -23.82244873 18.74229431 C-23.7995187 13.25546524 -23.60948746 8.50300648 -21.5625 3.375 C-15.27460563 -1.05819171 -7.40359009 -0.066202 0 0 Z " fill="#000000" transform="translate(1195.5625,884.625)"/>
<path d="M0 0 C1.16932068 -0.00953201 2.33864136 -0.01906403 3.543396 -0.02888489 C4.80685852 -0.02797348 6.07032104 -0.02706207 7.37207031 -0.02612305 C8.68242249 -0.03040817 9.99277466 -0.0346933 11.34283447 -0.03910828 C14.12361685 -0.04657117 16.90427237 -0.04628313 19.68505859 -0.04101562 C22.50716217 -0.03641582 25.32883178 -0.04317548 28.15087891 -0.06152344 C75.87001225 -0.36914802 75.87001225 -0.36914802 94.20019531 16.2746582 C94.82410156 16.81864258 95.44800781 17.36262695 96.09082031 17.9230957 C108.80314143 29.69581048 113.68699544 47.25259639 114.48925781 64.08325195 C115.01237895 83.58436488 112.80287188 104.56487013 100.20019531 120.2746582 C99.59949219 121.02360352 98.99878906 121.77254883 98.37988281 122.54418945 C84.65232388 137.86372766 62.44903334 141.9822477 42.87255859 143.06958008 C35.2057972 143.43841225 27.53505604 143.49824365 19.8605957 143.51489258 C17.1095734 143.52475906 14.35925187 143.55598982 11.60839844 143.5871582 C9.83561631 143.5936767 8.06282899 143.59893168 6.29003906 143.6027832 C5.07428444 143.62130341 5.07428444 143.62130341 3.83396912 143.64019775 C-1.44739481 143.6195781 -5.18261087 142.92709638 -9.79980469 140.2746582 C-12.40792316 136.72754683 -13.1754553 134.21889108 -13.18075562 129.84765625 C-13.18921509 128.77099701 -13.19767456 127.69433777 -13.20639038 126.58505249 C-13.20031769 125.41398956 -13.194245 124.24292664 -13.18798828 123.03637695 C-13.19324524 121.79522125 -13.1985022 120.55406555 -13.20391846 119.27529907 C-13.21484964 115.87848019 -13.21230205 112.48221047 -13.2027812 109.08542252 C-13.19517416 105.52699304 -13.20223311 101.96858667 -13.2069397 98.41015625 C-13.21239422 92.43493447 -13.20521366 86.45982401 -13.19091797 80.48461914 C-13.17459195 73.58116707 -13.17988068 66.67798081 -13.19639719 59.77453518 C-13.21002075 53.84232276 -13.21192748 47.91019027 -13.20408118 41.97796726 C-13.19940942 38.43712063 -13.19876604 34.89639886 -13.20869064 31.3555603 C-13.21898303 27.40791529 -13.20470859 23.4605669 -13.18798828 19.51293945 C-13.19406097 18.34187653 -13.20013367 17.1708136 -13.20639038 15.96426392 C-13.19793091 14.88760468 -13.18947144 13.81094543 -13.18075562 12.70166016 C-13.17962454 11.7688472 -13.17849346 10.83603424 -13.17732811 9.87495422 C-12.72166303 6.73643612 -11.62403894 4.84626967 -9.79980469 2.2746582 C-6.63665969 0.02956154 -3.8126778 0.01711273 0 0 Z M21.45800781 28.7746582 C17.70825721 33.73984521 17.07209426 36.89506965 17.02319336 43.03759766 C17.01662216 43.72090149 17.01005096 44.40420532 17.00328064 45.10821533 C16.98358037 47.36812454 16.97189249 49.6279674 16.96191406 51.88793945 C16.95783854 52.66101126 16.95376301 53.43408306 16.94956398 54.23058128 C16.92871731 58.32233792 16.91440948 62.41406115 16.9050293 66.50585938 C16.89396694 70.72599592 16.85956556 74.94560488 16.8198576 79.165555 C16.793679 82.4161424 16.7853364 85.66660429 16.78174782 88.91728783 C16.77688514 90.47258251 16.76528012 92.02787171 16.74670982 93.58306313 C16.72229002 95.76364276 16.7232876 97.94285988 16.73022461 100.12353516 C16.72435837 101.36247025 16.71849213 102.60140533 16.71244812 103.87788391 C17.49260184 109.31103891 19.95348248 112.3332628 24.26269531 115.5871582 C32.4542824 120.29296355 44.6140157 119.14708728 53.63769531 117.1496582 C63.51561416 114.23087507 71.36318609 108.80966281 77.20019531 100.2746582 C82.04654163 90.79896615 83.39635201 82.64910165 83.45019531 72.1496582 C83.47082031 71.16739258 83.49144531 70.18512695 83.51269531 69.1730957 C83.58273533 55.8654922 79.69296042 44.18934348 70.60253906 34.38793945 C61.35124478 26.24980903 50.43500623 24.16280604 38.57519531 23.9621582 C37.85823486 23.94427246 37.14127441 23.92638672 36.40258789 23.90795898 C30.69592096 23.91717497 25.91992754 24.93300534 21.45800781 28.7746582 Z " fill="#000000" transform="translate(281.7998046875,881.725341796875)"/>
<path d="M0 0 C0.87720703 -0.02449219 1.75441406 -0.04898438 2.65820312 -0.07421875 C8.27156942 -0.09940962 12.89143887 0.45412394 17.1875 4.375 C22.74580636 10.99879141 26.87069668 18.75651997 31.125 26.25 C31.76179688 27.36117187 32.39859375 28.47234375 33.0546875 29.6171875 C36.18709934 35.08413541 39.29646276 40.5640782 42.39881897 46.04812622 C43.81656054 48.55290036 45.23761872 51.05578675 46.65872192 53.55865479 C47.65807383 55.32304703 48.65127599 57.09091807 49.64428711 58.85888672 C53.11029927 64.9729519 56.74128806 70.79441197 60.91992188 76.44921875 C62.1875 78.375 62.1875 78.375 62.1875 80.375 C63.62160368 80.62454005 65.06010072 80.84892642 66.5 81.0625 C67.30050781 81.19011719 68.10101562 81.31773437 68.92578125 81.44921875 C71.2451994 81.58893964 71.2451994 81.58893964 72.91796875 80.08203125 C75.42483091 76.71126582 75.32500331 73.53554673 75.36108398 69.48583984 C75.37457382 68.27382904 75.38806366 67.06181824 75.40196228 65.81307983 C75.41240067 64.50062286 75.42283905 63.18816589 75.43359375 61.8359375 C75.44910671 60.47172257 75.46531706 59.1075154 75.48219299 57.74331665 C75.55277357 51.95510946 75.61278356 46.16682547 75.66430664 40.37841797 C75.6963264 36.8346101 75.73766561 33.29100551 75.78450203 29.74736404 C75.80807034 27.75517999 75.82119938 25.76288112 75.83409119 23.77059937 C76.06308284 6.83325414 76.06308284 6.83325414 80.375 1.84375 C83.85177628 0.02810017 86.27507986 -0.15872776 90.1875 -0.125 C91.38375 -0.1353125 92.58 -0.145625 93.8125 -0.15625 C97.75522844 0.46436466 99.40913155 1.5557732 102.1875 4.375 C103.19280132 7.39090396 103.31790712 9.40850929 103.32794189 12.56149292 C103.33365204 13.63540283 103.33936218 14.70931274 103.34524536 15.81576538 C103.34692215 17.5831456 103.34692215 17.5831456 103.34863281 19.38623047 C103.35608017 21.24752594 103.35608017 21.24752594 103.36367798 23.14642334 C103.37578765 26.55144723 103.3832449 29.9564097 103.38768864 33.36144781 C103.39062067 35.48904657 103.39472571 37.61663995 103.39919281 39.74423599 C103.41286458 46.40188347 103.42253305 53.05951864 103.4263947 59.71717918 C103.43087616 67.40100536 103.44842932 75.08465371 103.4773953 82.76842582 C103.49901243 88.70907101 103.50909898 94.64966617 103.51043582 100.59035027 C103.51148375 104.13795886 103.51738879 107.68540021 103.53525543 111.23296738 C103.55479875 115.19036346 103.550447 119.14753726 103.54394531 123.10498047 C103.5531601 124.27918549 103.56237488 125.4533905 103.5718689 126.66317749 C103.56629974 127.74272705 103.56073059 128.82227661 103.55499268 129.93453979 C103.55719252 131.33765569 103.55719252 131.33765569 103.5594368 132.76911736 C103.11049411 135.91452262 102.01766313 137.80060269 100.1875 140.375 C94.38544748 144.3747128 85.47276683 143.82781841 78.8125 142.6875 C73.37962486 141.61399374 69.65820459 139.44614135 66.46826172 134.95385742 C64.51095845 131.77900028 62.64942418 128.55762047 60.8125 125.3125 C60.11653743 124.10746929 59.41908171 122.90329984 58.72021484 121.69995117 C57.265901 119.19296926 55.81810706 116.68239397 54.375 114.16894531 C50.9088725 108.14296073 47.35984461 102.16590089 43.8125 96.1875 C43.14653809 95.0639209 42.48057617 93.9403418 41.79443359 92.78271484 C38.04956855 86.47591769 34.29116214 80.17854924 30.4375 73.9375 C30.0554541 73.31141846 29.6734082 72.68533691 29.27978516 72.0402832 C26.32307 67.30618667 24.14502198 63.89013736 18.625 62.4375 C15.28875807 62.05032292 15.28875807 62.05032292 13.3125 63.625 C11.01827248 67.19379837 11.05395092 70.35302826 11.02978516 74.47949219 C11.01439194 76.36725372 11.01439194 76.36725372 10.99868774 78.29315186 C10.99524982 78.96556664 10.9918119 79.63798141 10.98826981 80.3307724 C10.97645129 82.44173967 10.95698945 84.55250506 10.93515015 86.66339111 C10.87364525 92.66484796 10.81958503 98.66628475 10.78613281 104.66796875 C10.76510817 108.34151422 10.72974099 112.014692 10.68537521 115.68802643 C10.6712739 117.08332217 10.6625061 118.47868297 10.65932083 119.87404633 C10.62465669 133.60968154 10.62465669 133.60968154 7.1875 139.375 C3.61757779 142.32983426 0.75604637 142.78496337 -3.8125 142.75 C-4.823125 142.75773437 -5.83375 142.76546875 -6.875 142.7734375 C-10.29327863 142.309788 -12.11533724 141.519619 -14.8125 139.375 C-16.56203223 135.83060445 -17.06439799 132.95983224 -17.07319641 129.03065491 C-17.08028122 127.97226913 -17.08736603 126.91388336 -17.09466553 125.82342529 C-17.09218811 124.67263489 -17.08971069 123.52184448 -17.0871582 122.33618164 C-17.09226913 121.11613937 -17.09738007 119.89609711 -17.10264587 118.63908386 C-17.11415299 115.30015858 -17.1166173 111.96148179 -17.11408257 108.62255406 C-17.11301125 105.83183588 -17.11790033 103.04114048 -17.122688 100.25042719 C-17.13377476 93.6650623 -17.13422523 87.07975446 -17.12817383 80.49438477 C-17.12213345 73.70797813 -17.13444844 66.92177878 -17.1557439 60.13540751 C-17.17337463 54.30170214 -17.17935896 48.46806267 -17.17610615 42.63433164 C-17.17429554 39.15324383 -17.17690716 35.67230392 -17.19082069 32.19124031 C-17.20575978 28.30848211 -17.196416 24.42598684 -17.18481445 20.54321289 C-17.19245819 19.39444672 -17.20010193 18.24568054 -17.20797729 17.06210327 C-17.17089479 11.45183646 -17.10172809 7.16542472 -13.8125 2.375 C-9.67324963 -0.56698162 -4.8838838 0.00708323 0 0 Z " fill="#000000" transform="translate(1475.8125,881.625)"/>
<path d="M0 0 C3.62219561 2.75568985 6.82650737 5.74328641 10 9 C10.69609375 9.66386719 11.3921875 10.32773437 12.109375 11.01171875 C26.12427798 25.27106772 31.25877401 46.40363328 31.2487793 65.80737305 C30.96765309 85.84823307 24.39139825 104.83592385 10.53125 119.55078125 C-5.30005633 134.86903599 -22.9441647 139.43769714 -44.45239258 139.36352539 C-62.9390302 139.05810697 -79.99599251 133.31999335 -93.24609375 120.01171875 C-109.01630387 103.24179486 -114.89111999 82.47891972 -114.28515625 59.9375 C-113.34436854 39.65742349 -106.05105773 20.05098745 -91 6 C-83.32060897 -0.147544 -75.35579714 -4.8105237 -66 -8 C-65.13890625 -8.31839844 -64.2778125 -8.63679687 -63.390625 -8.96484375 C-42.86798274 -15.4004122 -18.03864637 -11.33282988 0 0 Z M-74.3984375 29.734375 C-84.47956022 43.99547543 -84.50845131 61.98617917 -82.5703125 78.70703125 C-80.16316638 89.80664949 -74.21760748 101.14907552 -65 108 C-54.0404903 114.50720888 -44.52038093 116.61433688 -32 113.875 C-20.77562814 110.76671241 -12.70144376 104.45619597 -6.5 94.62109375 C1.129969 80.47385956 2.34306351 62.90750339 -1.1875 47.3125 C-5.22310485 34.20143355 -12.4564463 24.09929709 -24.4453125 17.15625 C-42.78790881 8.85440213 -61.89647505 14.77768933 -74.3984375 29.734375 Z " fill="#000000" transform="translate(996,889)"/>
<path d="M0 0 C0.83121368 -0.00335861 1.66242737 -0.00671722 2.51882935 -0.01017761 C5.2705433 -0.01968749 8.02219641 -0.02163077 10.77392578 -0.02270508 C12.68580144 -0.02591774 14.59767686 -0.02928182 16.509552 -0.03279114 C20.51939463 -0.03878257 24.52921571 -0.04063103 28.5390625 -0.04003906 C33.67609703 -0.03993746 38.81299328 -0.05358727 43.94999504 -0.07081127 C47.89967483 -0.08193258 51.8493212 -0.08395823 55.79901505 -0.08342934 C57.69282635 -0.08460935 59.58663852 -0.08903229 61.48043442 -0.0967617 C64.1302838 -0.10656373 66.77983325 -0.10368264 69.4296875 -0.09765625 C70.2111615 -0.10327576 70.9926355 -0.10889526 71.79779053 -0.11468506 C77.28684279 -0.08297865 80.97594969 0.52944651 85.15673828 4.14526367 C87.59356338 8.47739718 87.61983672 12.28378069 86.84423828 17.14526367 C84.964623 20.75412501 83.70774895 21.81824945 79.91870117 23.25317383 C74.75807553 24.62110288 69.51836275 24.42368619 64.21533203 24.41870117 C61.94123848 24.43898057 59.66714997 24.45983116 57.39306641 24.48120117 C53.82930218 24.50383293 50.26573721 24.52028986 46.7019043 24.52612305 C43.24768658 24.53564339 39.7943518 24.56940229 36.34033203 24.60620117 C35.27769638 24.6011557 34.21506073 24.59611023 33.120224 24.59091187 C27.05633582 24.67149896 23.44206575 25.06173772 18.84423828 29.14526367 C15.2810572 34.13371719 15.12214826 39.2241255 15.84423828 45.14526367 C17.21918517 48.74631504 18.66806306 51.87656709 21.84423828 54.14526367 C27.81321277 56.30592229 33.29203571 56.41033499 39.59814453 56.38354492 C41.68994796 56.3989557 43.78174497 56.41525866 45.87353516 56.43237305 C49.14768714 56.44885326 52.42136636 56.45773218 55.69555664 56.45068359 C58.87195642 56.44806378 62.04693482 56.47616908 65.22314453 56.50854492 C66.19828506 56.49833817 67.1734256 56.48813141 68.17811584 56.47761536 C72.67661228 56.54224446 75.86032003 56.66150838 79.45117188 59.54467773 C82.49803031 62.85575058 82.82083441 64.59706255 83.00830078 68.93041992 C82.75537077 72.34497507 81.87245053 74.39736321 79.84423828 77.14526367 C74.40786425 80.79415792 69.27805734 80.57057125 62.96923828 80.55151367 C61.92654785 80.56234985 60.88385742 80.57318604 59.80957031 80.58435059 C55.36479071 80.63008904 50.92007033 80.64167757 46.47509766 80.65649414 C43.22293479 80.67221198 39.97125545 80.70521702 36.71923828 80.73901367 C35.71908691 80.73599243 34.71893555 80.73297119 33.68847656 80.7298584 C28.32057996 80.78752584 24.47539864 81.11328272 19.84423828 84.14526367 C15.30633227 88.90957281 14.81167609 95.8582652 14.53173828 102.20776367 C15.0121776 108.26129903 15.96933594 113.31609065 20.40673828 117.64526367 C24.05951694 119.89312746 25.98001202 120.27517143 30.26855469 120.30297852 C31.97140121 120.31837173 31.97140121 120.31837173 33.70864868 120.33407593 C34.94190887 120.34137726 36.17516907 120.34867859 37.44580078 120.35620117 C40.04606738 120.38427984 42.64632771 120.41294436 45.24658203 120.44213867 C49.35445756 120.48448814 53.46229558 120.52125608 57.5703125 120.54663086 C61.52902179 120.57174005 65.48730773 120.62019092 69.44580078 120.66870117 C70.66691559 120.67195404 71.8880304 120.67520691 73.14614868 120.67855835 C79.71169696 120.77279957 84.94197985 121.15166902 90.84423828 124.14526367 C93.26939719 127.89323653 94.09862448 130.93434423 93.84423828 135.33276367 C92.84423828 139.14526367 92.84423828 139.14526367 90.78173828 141.52026367 C84.51732406 144.9856843 78.15163591 145.44112133 71.15258789 145.40405273 C69.90949104 145.40930969 69.90949104 145.40930969 68.64128113 145.41467285 C65.92629396 145.4234112 63.21157144 145.41766965 60.49658203 145.41088867 C58.59664358 145.41223746 56.69670546 145.41417978 54.79676819 145.41668701 C50.82517188 145.41962747 46.85366585 145.41537491 42.88208008 145.40600586 C37.80254155 145.39460421 32.72321425 145.40118219 27.64368343 145.41315079 C23.72394735 145.42039188 19.80426101 145.41807126 15.88452339 145.4128952 C14.01190732 145.41156534 12.13928667 145.41318309 10.26667595 145.41785431 C7.64649429 145.42295746 5.02665075 145.41515665 2.40649414 145.40405273 C1.64006592 145.4081012 0.8736377 145.41214966 0.08398438 145.4163208 C-4.62899469 145.37949063 -8.68114256 144.80069271 -13.15576172 143.14526367 C-19.27216407 136.22407154 -18.30765421 127.4716643 -18.31689453 118.75317383 C-18.32185944 117.62544052 -18.32682434 116.49770721 -18.3319397 115.33580017 C-18.34650151 111.61863589 -18.35335253 107.90151425 -18.35888672 104.18432617 C-18.36464205 101.59272257 -18.37039974 99.00111897 -18.37615967 96.40951538 C-18.3853131 91.67361848 -18.39162102 86.93773853 -18.39465642 82.20183432 C-18.39913671 75.25216672 -18.41669377 68.30269584 -18.44565701 61.35308802 C-18.46994901 55.31267369 -18.47760402 49.2723519 -18.47933197 43.231884 C-18.48235313 40.67151187 -18.49036346 38.11114045 -18.50351715 35.55080032 C-18.52062424 31.96576367 -18.51868595 28.3812038 -18.51220703 24.79614258 C-18.52142181 23.74546097 -18.5306366 22.69477936 -18.54013062 21.61225891 C-18.50165956 14.79616892 -18.2304214 7.21992336 -13.15576172 2.14526367 C-8.77235687 -0.04643875 -4.78459757 -0.00276034 0 0 Z " fill="#000000" transform="translate(1356.15576171875,879.854736328125)"/>
<path d="M0 0 C0.83121368 -0.00335861 1.66242737 -0.00671722 2.51882935 -0.01017761 C5.2705433 -0.01968749 8.02219641 -0.02163077 10.77392578 -0.02270508 C12.68580144 -0.02591774 14.59767686 -0.02928182 16.509552 -0.03279114 C20.51939463 -0.03878257 24.52921571 -0.04063103 28.5390625 -0.04003906 C33.67609703 -0.03993746 38.81299328 -0.05358727 43.94999504 -0.07081127 C47.89967483 -0.08193258 51.8493212 -0.08395823 55.79901505 -0.08342934 C57.69282635 -0.08460935 59.58663852 -0.08903229 61.48043442 -0.0967617 C64.1302838 -0.10656373 66.77983325 -0.10368264 69.4296875 -0.09765625 C70.2111615 -0.10327576 70.9926355 -0.10889526 71.79779053 -0.11468506 C77.28684279 -0.08297865 80.97594969 0.52944651 85.15673828 4.14526367 C87.59356338 8.47739718 87.61983672 12.28378069 86.84423828 17.14526367 C84.964623 20.75412501 83.70774895 21.81824945 79.91870117 23.25317383 C74.75807553 24.62110288 69.51836275 24.42368619 64.21533203 24.41870117 C61.94123848 24.43898057 59.66714997 24.45983116 57.39306641 24.48120117 C53.82930218 24.50383293 50.26573721 24.52028986 46.7019043 24.52612305 C43.24768658 24.53564339 39.7943518 24.56940229 36.34033203 24.60620117 C35.27769638 24.6011557 34.21506073 24.59611023 33.120224 24.59091187 C27.04100659 24.67170268 23.47871328 25.09711462 18.84423828 29.14526367 C15.22471829 33.12673566 15.40598828 37.34491829 15.55126953 42.48510742 C16.01732342 46.71687675 17.67143833 49.50334374 20.09423828 52.89526367 C25.76256427 56.94406795 32.99537765 56.42548022 39.63330078 56.41870117 C41.72966041 56.43897712 43.82601455 56.45982764 45.92236328 56.48120117 C49.20528844 56.50384883 52.48799621 56.52029696 55.77099609 56.52612305 C58.95465646 56.53563503 62.13735562 56.56937853 65.32080078 56.60620117 C66.3011026 56.6011557 67.28140442 56.59611023 68.29141235 56.59091187 C72.66275051 56.6540686 75.15647481 56.71971714 78.93969727 59.06054688 C81.80228596 62.19394578 82.53989777 64.96253255 82.84423828 69.14526367 C82.2152915 72.98183902 81.73392663 75.25557533 78.96923828 78.02026367 C75.36855681 79.92650681 72.11846445 80.27008841 68.07910156 80.28710938 C67.13777374 80.29414383 66.19644592 80.30117828 65.22659302 80.3084259 C64.21611908 80.31259018 63.20564514 80.31675446 62.16455078 80.32104492 C60.01740552 80.34423981 57.87027007 80.36835701 55.72314453 80.39331055 C52.34368286 80.42843651 48.96458307 80.45778214 45.58496094 80.47119141 C42.31938119 80.48667825 39.05485234 80.52688783 35.78955078 80.57104492 C34.78312531 80.56913651 33.77669983 80.56722809 32.73977661 80.56526184 C26.80110579 80.66860811 23.37602451 81.20420375 18.84423828 85.14526367 C13.97457732 91.52619872 14.40824695 99.45392941 14.84423828 107.14526367 C15.53515592 111.90297502 17.01480566 115.10424365 20.84423828 118.14526367 C24.13781356 120.16094429 26.6756226 120.40011146 30.51147461 120.41650391 C31.64978226 120.42669052 32.7880899 120.43687714 33.96089172 120.44737244 C35.1869664 120.44951248 36.41304108 120.45165253 37.67626953 120.45385742 C40.27457905 120.47901907 42.87288629 120.50441707 45.47119141 120.5300293 C49.56596856 120.56077961 53.66076676 120.5829901 57.75561523 120.6015625 C61.70851034 120.62056733 65.66104311 120.66268401 69.61376953 120.70385742 C70.83377151 120.70397324 72.0537735 120.70408905 73.31074524 120.70420837 C80.54010956 120.78822465 85.62137512 121.33002156 91.71923828 125.39526367 C93.58437797 128.29659208 93.73026487 130.72606139 93.84423828 134.14526367 C92.67201726 138.05266708 91.74420178 140.39529409 88.59423828 143.02026367 C82.77011959 145.40285768 76.55708619 145.29423048 70.35791016 145.29052734 C69.53907852 145.29388596 68.72024689 145.29724457 67.87660217 145.30070496 C65.18871516 145.31014978 62.50089082 145.31215454 59.81298828 145.31323242 C57.93404109 145.3164486 56.05509414 145.31981295 54.17614746 145.32331848 C50.24568094 145.32929291 46.31523636 145.33116003 42.38476562 145.33056641 C37.35790038 145.33046467 32.33117602 145.34413585 27.30434418 145.36133862 C23.42664955 145.37247451 19.54898888 145.37448515 15.67127991 145.37395668 C13.81819675 145.37513366 11.96511262 145.37953958 10.11204529 145.38728905 C7.51811921 145.39712465 4.92449775 145.39419726 2.33056641 145.38818359 C1.57191788 145.3938031 0.81326935 145.39942261 0.03163147 145.4052124 C-5.2504235 145.37421307 -10.42996912 144.93112779 -14.96826172 141.95776367 C-19.00318032 135.79920371 -18.4406416 128.41288511 -18.41455078 121.35424805 C-18.41805542 120.18428787 -18.42156006 119.0143277 -18.4251709 117.80891418 C-18.43395345 113.95221983 -18.42815119 110.0957098 -18.42138672 106.23901367 C-18.42273436 103.55293552 -18.42467284 100.8668629 -18.42718506 98.18078613 C-18.43081722 92.55548109 -18.42604535 86.93022868 -18.41650391 81.30493164 C-18.40562078 74.81392051 -18.40914689 68.32303505 -18.42015672 61.83202696 C-18.42925102 56.24539987 -18.43050441 50.65881047 -18.42527938 45.07217836 C-18.42217144 41.74146914 -18.42251045 38.41083147 -18.42835236 35.0801239 C-18.4334381 31.36542293 -18.42567819 27.65096239 -18.41455078 23.9362793 C-18.41859924 22.84100418 -18.42264771 21.74572906 -18.42681885 20.61726379 C-18.39616935 15.08686376 -18.17706435 10.32496704 -16.15576172 5.14526367 C-11.11125055 0.23009895 -6.74507601 -0.00389139 0 0 Z " fill="#000000" transform="translate(422.15576171875,879.854736328125)"/>
<path d="M0 0 C0.73087326 -0.00540298 1.46174652 -0.01080597 2.21476746 -0.01637268 C4.62536464 -0.02885243 7.03476448 -0.01236213 9.4453125 0.00561523 C11.13338279 0.00546009 12.82145344 0.00396863 14.50952148 0.00120544 C18.05029019 -0.00017867 21.59065397 0.01237075 25.13134766 0.03515625 C29.63544435 0.06336689 34.13885968 0.06085136 38.64300537 0.04806614 C42.13325649 0.04105152 45.62335483 0.0489664 49.11358643 0.06132317 C50.77190562 0.06579415 52.4302415 0.0662132 54.08856201 0.06225777 C70.6371453 0.04128343 86.27867537 2.02631652 99.01171875 13.75170898 C109.3239584 25.33036403 110.41939421 38.36924546 109.734375 53.17993164 C108.97235854 63.96382533 104.89739085 74.77544032 96.9453125 82.31420898 C82.62603425 93.60752654 65.24000113 95.97575235 47.6328125 96.56420898 C34.78978038 96.88368568 34.78978038 96.88368568 22.5703125 100.50170898 C18.71721682 105.92012478 18.46023758 112.11511119 18.4296875 118.59936523 C18.41035156 119.73051758 18.39101562 120.86166992 18.37109375 122.02709961 C18.33718599 124.38890573 18.31900619 126.75098903 18.31640625 129.11303711 C18.10810743 138.72219037 18.10810743 138.72219037 15.18359375 141.72436523 C8.47403021 146.28767078 2.34657031 145.78175142 -5.4296875 144.50170898 C-9.22861157 143.23540096 -10.79524735 142.41799048 -13.0587616 139.14894104 C-15.04440539 133.86630418 -14.83925769 128.93260696 -14.80200195 123.33349609 C-14.80565262 122.11170151 -14.80930328 120.88990692 -14.81306458 119.63108826 C-14.81976756 116.29216623 -14.81307763 112.95380439 -14.79973245 109.61493754 C-14.78838433 106.1152448 -14.79252798 102.61556585 -14.79447937 99.11585999 C-14.79536117 93.24076542 -14.78430493 87.3657865 -14.76586914 81.49072266 C-14.74469337 74.70374048 -14.74119441 67.91692752 -14.7474311 61.12991899 C-14.75313034 54.59238897 -14.74747314 48.05491838 -14.73625755 41.51739693 C-14.73161998 38.73880473 -14.73073405 35.96024898 -14.7328434 33.18165398 C-14.73508082 29.30121458 -14.72060129 25.42093541 -14.7043457 21.54052734 C-14.70682312 20.38973694 -14.70930054 19.23894653 -14.71185303 18.05328369 C-14.70476822 16.99489792 -14.69768341 15.93651215 -14.69038391 14.84605408 C-14.68833104 13.92928863 -14.68627817 13.01252317 -14.68416309 12.06797695 C-14.2731362 7.92296196 -13.12874805 5.23975598 -10.26904297 2.2205658 C-6.63043707 0.01786782 -4.24205725 0.00053499 0 0 Z M21.73046875 27.36889648 C21.36824219 28.03147461 21.00601562 28.69405273 20.6328125 29.37670898 C20.25253906 30.03413086 19.87226562 30.69155273 19.48046875 31.36889648 C17.02662527 37.11910481 17.35273746 43.24028498 17.3203125 49.37670898 C17.2996875 50.34479492 17.2790625 51.31288086 17.2578125 52.31030273 C17.217674 59.68575202 18.02586565 64.63920628 23.0703125 70.31420898 C31.51917288 76.54293087 44.72749872 74.98128424 54.5703125 73.50170898 C61.74243463 71.78108111 69.33492922 68.89470647 73.84765625 62.76733398 C78.00910652 55.83652001 78.84286445 48.05976677 77.0390625 40.18139648 C74.55382321 33.07685375 70.6918879 28.98878383 64.01953125 25.57202148 C56.72121679 22.38264642 49.30155285 22.29588718 41.4453125 22.18920898 C40.59799561 22.17140381 39.75067871 22.15359863 38.87768555 22.13525391 C32.60997543 22.14320242 26.365776 22.66469932 21.73046875 27.36889648 Z " fill="#000000" transform="translate(1053.4296875,879.498291015625)"/>
<path d="M0 0 C0.83979904 -0.00525696 1.67959808 -0.01051392 2.54484558 -0.01593018 C5.30808363 -0.02908417 8.07074093 -0.02040847 10.83398438 -0.01025391 C12.7615978 -0.01227596 14.68921048 -0.0151885 16.61682129 -0.01895142 C20.65168561 -0.02336854 24.68635033 -0.01696338 28.72119141 -0.00292969 C33.88617084 0.01416178 39.05068255 0.00431732 44.21564484 -0.01364708 C48.19455472 -0.02450142 52.1733542 -0.02103099 56.15226746 -0.0132637 C58.05641231 -0.01126626 59.96056727 -0.01370492 61.86470032 -0.02070236 C64.52855886 -0.02834398 67.19166599 -0.01667482 69.85546875 0 C70.63798508 -0.00607269 71.4205014 -0.01214539 72.22673035 -0.0184021 C77.00739189 0.03687593 80.28230583 0.75885369 84.42773438 3.38818359 C87.03118045 6.91543312 87.6630469 9.66514329 87.42773438 13.95068359 C86.8980499 17.32813403 86.33826386 18.51088602 84.24023438 21.38818359 C78.44037988 25.51252457 70.9771318 24.551127 64.11523438 24.59912109 C61.88345605 24.62717752 59.65168531 24.65584189 57.41992188 24.68505859 C53.91764441 24.72636599 50.41551035 24.7632753 46.91308594 24.78955078 C43.5218429 24.81716832 40.13123301 24.86302298 36.74023438 24.91162109 C35.69633545 24.91487396 34.65243652 24.91812683 33.5769043 24.92147827 C28.13218479 25.01340457 24.10412815 25.27280195 19.42773438 28.38818359 C15.94985382 32.46569872 15.30068715 37.16230787 15.42773438 42.38818359 C16.25366221 47.39988161 17.42872144 50.51947669 21.30273438 53.88818359 C25.58269151 55.94256302 29.40836545 56.50921201 34.12280273 56.5300293 C35.02401352 56.53706375 35.9252243 56.54409821 36.85374451 56.55134583 C38.29609215 56.55759224 38.29609215 56.55759224 39.76757812 56.56396484 C41.82032283 56.58715602 43.87305725 56.61127306 45.92578125 56.63623047 C49.14940364 56.67136867 52.37264469 56.70071439 55.59643555 56.71411133 C58.7164465 56.72960058 61.83535834 56.76980491 64.95507812 56.81396484 C66.39438942 56.81110222 66.39438942 56.81110222 67.86277771 56.80818176 C73.6459106 56.91363641 77.05363586 57.47974497 81.42773438 61.38818359 C82.78606535 65.46317653 83.080355 69.13164686 82.42773438 73.38818359 C80.85294715 76.43067252 78.89880304 78.8807872 75.55368042 80.03457642 C73.22393807 80.4220809 71.02473405 80.52731663 68.66259766 80.54589844 C67.72126984 80.55616058 66.77994202 80.56642273 65.81008911 80.57699585 C64.2943782 80.58794785 64.2943782 80.58794785 62.74804688 80.59912109 C60.60090379 80.62718657 58.45376847 80.65585101 56.30664062 80.68505859 C52.92724805 80.72632462 49.54800089 80.76322047 46.16845703 80.78955078 C42.90301759 80.81718765 39.6382332 80.86305472 36.37304688 80.91162109 C34.86340866 80.9165004 34.86340866 80.9165004 33.32327271 80.92147827 C27.99018235 81.01471114 23.96561757 81.26245618 19.42773438 84.38818359 C15.24548422 89.37071907 14.82687177 95.26324654 14.99023438 101.51318359 C14.98314453 102.28533203 14.97605469 103.05748047 14.96875 103.85302734 C15.02295561 108.74821081 15.77382849 112.13804092 18.42773438 116.38818359 C22.32852856 119.92327833 25.73992309 120.5120292 30.88964844 120.56176758 C32.00801086 120.57525742 33.12637329 120.58874725 34.27862549 120.60264587 C35.48798767 120.61308426 36.69734985 120.62352264 37.94335938 120.63427734 C40.49935232 120.66722073 43.05534182 120.70043229 45.61132812 120.73388672 C49.64465081 120.7822995 53.67800043 120.82609085 57.71142578 120.86499023 C61.60138672 120.90478097 65.49105857 120.95631507 69.38085938 121.00927734 C71.18275726 121.02189857 71.18275726 121.02189857 73.02105713 121.03477478 C86.6190599 121.23486649 86.6190599 121.23486649 91.30273438 124.82568359 C94.02845785 128.61141064 93.76167613 132.92960994 93.42773438 137.38818359 C92.53385233 140.69554715 91.6422688 141.25653747 88.67773438 143.07568359 C82.89207971 145.41219798 77.22719139 145.53711693 71.05493164 145.53344727 C69.82690323 145.53848518 69.82690323 145.53848518 68.57406616 145.54362488 C65.88074202 145.55308637 63.18748033 145.55507543 60.49414062 145.55615234 C58.61376419 145.55936778 56.733388 145.56273206 54.85301208 145.5662384 C50.91656921 145.57221731 46.98014826 145.57407953 43.04370117 145.57348633 C38.00896017 145.57338467 32.97436005 145.58704672 27.93965244 145.60425854 C24.05766661 145.61539557 20.17571469 145.61740503 16.29371452 145.6168766 C14.43784028 145.61805376 12.58196508 145.6224607 10.72610664 145.63020897 C8.12728205 145.6400452 5.5287615 145.63711674 2.92993164 145.63110352 C2.16971207 145.63672302 1.40949249 145.64234253 0.62623596 145.64813232 C-5.0488702 145.61489347 -10.40062565 145.15978462 -14.94726562 141.45068359 C-17.57019053 138.1215866 -17.6995534 135.34113354 -17.71270752 131.24638367 C-17.72127274 129.65030777 -17.72127274 129.65030777 -17.73001099 128.02198792 C-17.73112885 126.85465622 -17.7322467 125.68732452 -17.73339844 124.48461914 C-17.73836334 123.25511536 -17.74332825 122.02561157 -17.7484436 120.7588501 C-17.76055358 117.38474967 -17.76801079 114.01071123 -17.77245426 110.63659644 C-17.77538666 108.52775095 -17.7794918 106.41891089 -17.78395844 104.31006813 C-17.79763129 97.70954975 -17.80729882 91.10904376 -17.81116033 84.5085122 C-17.81563987 76.89374589 -17.83318367 69.27915919 -17.86216092 61.66444749 C-17.88379123 55.77559088 -17.89386533 49.88678476 -17.89520144 43.99788886 C-17.89624857 40.48210577 -17.90213638 36.96649156 -17.92002106 33.45075035 C-17.93959263 29.52708542 -17.93520736 25.6036442 -17.92871094 21.67993164 C-17.93792572 20.51867264 -17.9471405 19.35741364 -17.95663452 18.16096497 C-17.90250552 7.73677695 -17.90250552 7.73677695 -14.57226562 3.38818359 C-9.8277835 0.07684171 -5.56954791 -0.0432223 0 0 Z " fill="#000000" transform="translate(680.572265625,879.61181640625)"/>
<path d="M0 0 C2.03781767 1.59602169 2.88768862 2.47695347 3.43592834 5.03016663 C3.45411683 12.52163931 1.45006877 18.80315247 -1.06640625 25.80859375 C-1.49218964 27.03282547 -1.91797302 28.25705719 -2.35665894 29.51838684 C-3.50384132 32.81613786 -4.6696482 36.10700924 -5.83924484 39.39686584 C-7.0532608 42.82216106 -8.24957663 46.25362479 -9.44750977 49.68457031 C-11.37441748 55.19700178 -13.31075916 60.70602008 -15.25488281 66.21240234 C-17.69718829 73.13096266 -20.11646943 80.05733966 -22.5234375 86.98828125 C-23.1984549 88.93108188 -23.87350269 90.87387196 -24.54858398 92.81665039 C-24.86560272 93.72899445 -25.18262146 94.6413385 -25.50924683 95.58132935 C-27.47985831 101.24671588 -29.45997734 106.9087435 -31.44848633 112.56787109 C-32.52339985 115.62908682 -33.58342086 118.69502432 -34.63549805 121.76416016 C-34.90278214 122.53741638 -35.17006622 123.31067261 -35.44544983 124.10736084 C-35.94901274 125.56421199 -36.44846589 127.02249337 -36.94285583 128.48248291 C-39.28027479 135.21090922 -41.74579816 140.24584586 -48.1015625 143.671875 C-52.50888347 145.43572991 -56.74375921 145.4421067 -61.4375 145.375 C-62.24509766 145.38660156 -63.05269531 145.39820313 -63.88476562 145.41015625 C-69.21400125 145.3843904 -74.39522654 144.88709514 -79 142 C-88.16719085 131.87445029 -91.24734863 115.64508998 -95.4375 102.9375 C-96.14295643 100.80915437 -96.84868989 98.68090055 -97.5546875 96.55273438 C-102.8413821 80.59557279 -108.06484552 64.61754338 -113.24047852 48.62402344 C-115.6658417 41.13349001 -118.10141576 33.64940417 -120.6484375 26.19921875 C-121.22368164 24.5121582 -121.22368164 24.5121582 -121.81054688 22.79101562 C-122.48855141 20.8142281 -123.1739612 18.83995382 -123.86914062 16.86914062 C-126.80741023 8.3041176 -126.80741023 8.3041176 -126 4 C-124.15234375 1.16015625 -124.15234375 1.16015625 -121 -1 C-117.50014685 -1.69488429 -114.11931635 -1.65344831 -110.5625 -1.5625 C-109.1693457 -1.57893555 -109.1693457 -1.57893555 -107.74804688 -1.59570312 C-102.06943607 -1.53507739 -98.28206575 -1.07538988 -94 3 C-89.73979889 10.28215269 -87.65781443 18.25250043 -85.33984375 26.3046875 C-84.90501932 27.79407183 -84.46950568 29.28325509 -84.03334045 30.77224731 C-82.89182733 34.67578133 -81.7593864 38.58188855 -80.62896729 42.48864746 C-79.48385563 46.44059164 -78.33056158 50.39014476 -77.17773438 54.33984375 C-75.87808329 58.79399455 -74.57922052 63.24836069 -73.28660583 67.70455933 C-71.22440227 74.81324757 -69.14691828 81.91636251 -67 89 C-65.14375 89.4021875 -65.14375 89.4021875 -63.25 89.8125 C-62.20585938 90.03873047 -62.20585938 90.03873047 -61.140625 90.26953125 C-58.79840504 90.19839354 -58.79840504 90.19839354 -57.06689453 88.04614258 C-54.45469952 84.19634845 -53.17840322 80.40577876 -51.7890625 75.9921875 C-51.34719101 74.62862625 -51.34719101 74.62862625 -50.89639282 73.23751831 C-46.43832971 59.33675297 -42.35526864 45.31018511 -38.25585938 31.30029297 C-37.16960297 27.59494111 -36.06667064 23.8948915 -34.9609375 20.1953125 C-34.63684906 19.072388 -34.31276062 17.9494635 -33.97885132 16.79251099 C-29.93267873 3.37010535 -29.93267873 3.37010535 -24.16171265 -0.10787964 C-16.74063846 -3.55369073 -7.46760985 -2.9559289 0 0 Z " fill="#000000" transform="translate(650,881)"/>
<path d="M0 0 C0.93718872 -0.00525696 1.87437744 -0.01051392 2.83996582 -0.01593018 C5.93327578 -0.02911735 9.0260697 -0.02039576 12.11938477 -0.01025391 C14.27262979 -0.01227518 16.42587414 -0.01518706 18.57911682 -0.01895142 C23.09073406 -0.02337318 27.60217303 -0.01694896 32.11376953 -0.00292969 C37.89194928 0.01415168 43.66971066 0.00432652 49.44787502 -0.01364708 C53.8943038 -0.02449757 58.34063372 -0.02103255 62.78706551 -0.0132637 C64.91728833 -0.01126467 67.04752018 -0.01371053 69.17773247 -0.02070236 C72.15779192 -0.02833634 75.13717808 -0.01668452 78.1171875 0 C78.99478226 -0.00607269 79.87237701 -0.01214539 80.77656555 -0.0184021 C85.79250696 0.03352212 89.29288414 0.57373732 93.62329102 3.38818359 C97.0124667 8.13302955 97.3400355 12.75517763 96.62329102 18.38818359 C95.36375402 22.38906581 94.37352074 23.893714 90.87329102 26.20068359 C85.90743177 28.02854242 80.5298679 27.82347031 75.30297852 28.08740234 C69.76911551 28.53974571 64.70223846 29.37420326 60.62329102 33.32568359 C58.97402971 36.72728503 58.49862889 39.82893455 58.48526001 43.58724976 C58.47980667 44.4170787 58.47435333 45.24690765 58.46873474 46.10188293 C58.46769241 47.00379868 58.46665009 47.90571442 58.46557617 48.83496094 C58.46049545 49.79151077 58.45541473 50.74806061 58.45018005 51.7335968 C58.439485 53.80975811 58.43086143 55.88593089 58.42406082 57.96210861 C58.41226415 61.24902099 58.39280966 64.53580244 58.37094116 67.82266235 C58.30934735 77.16770065 58.25526555 86.51272494 58.22192383 95.85791016 C58.20097757 101.5749509 58.16567603 107.29175183 58.12116623 113.00865555 C58.10700761 115.18629763 58.09828411 117.36398213 58.09511185 119.54166794 C58.09020253 122.58890633 58.06704392 125.63550817 58.03979492 128.68261719 C58.04430412 130.02941811 58.04430412 130.02941811 58.04890442 131.40342712 C57.9815338 136.47744678 57.43034089 139.98760588 54.62329102 144.38818359 C49.99469436 148.58284932 45.3072485 148.62426315 39.31079102 148.70068359 C38.5637793 148.7296875 37.81676758 148.75869141 37.04711914 148.78857422 C31.75681918 148.84895517 28.82777425 147.87062031 24.62329102 144.38818359 C20.00783421 138.34034365 20.47430238 131.24268269 20.46557617 123.97387695 C20.46049545 123.04468948 20.45541473 122.11550201 20.45018005 121.15815735 C20.43951107 119.14805468 20.4308774 117.13794039 20.42406082 115.12782097 C20.41223461 111.94603718 20.39277454 108.76438684 20.37094116 105.58265686 C20.30943286 96.53895493 20.25521409 87.49526948 20.22192383 78.45141602 C20.20099323 72.91361774 20.16571048 67.37606781 20.12116623 61.83841133 C20.10700186 59.72972087 20.09828281 57.62098654 20.09511185 55.5122509 C20.09020949 52.56560056 20.06707111 49.61961183 20.03979492 46.6730957 C20.04280106 45.80282745 20.04580719 44.9325592 20.04890442 44.03591919 C19.98417955 39.33333312 19.67520926 36.20507629 16.62329102 32.38818359 C11.18880977 28.38382899 5.82812634 28.29346055 -0.75170898 28.01318359 C-6.1996332 27.70513412 -10.69074514 27.33053298 -15.37670898 24.38818359 C-18.36212069 19.7882125 -17.86627756 14.6663448 -17.37670898 9.38818359 C-16.17227463 5.83827182 -15.24854166 4.0900359 -12.34947205 1.75619507 C-8.18715151 -0.15922911 -4.53054498 -0.03127787 0 0 Z " fill="#000000" transform="translate(1607.376708984375,880.61181640625)"/>
<path d="M0 0 C3.47752459 2.31834973 4.84062933 4.17467545 6.8125 7.875 C7.370731 11.07512535 7.34646958 14.21498357 7.31079102 17.45703125 C7.31630981 18.40411957 7.32182861 19.35120789 7.32751465 20.32699585 C7.33681652 22.37637258 7.33695485 24.42580712 7.32892036 26.47518921 C7.31627774 29.7204877 7.32759193 32.9649373 7.34495544 36.21020508 C7.37164747 41.92896535 7.37725142 47.64751718 7.37585449 53.36633301 C7.37362535 62.51951859 7.38774903 71.67244636 7.43144035 80.82553101 C7.44127432 84.01964893 7.43256386 87.21336116 7.42274475 90.4074707 C7.42888957 92.36930608 7.43580151 94.33113926 7.44360352 96.29296875 C7.43588425 97.1783432 7.42816498 98.06371765 7.42021179 98.97592163 C7.46156732 104.01975511 7.997375 107.5112768 10.8125 111.875 C19.95329972 118.98932894 35.25531362 117.22655511 46.234375 117.35351562 C52.47508697 117.49856619 57.35378574 117.71549314 62.8125 120.875 C66.70849951 125.90209614 66.48309695 131.78525472 65.8125 137.875 C64.29502552 142.12392853 62.70348319 144.56472873 58.8125 146.875 C55.3337925 148.03456917 52.20939373 148.03027379 48.59057617 148.03613281 C47.85850449 148.04109772 47.1264328 148.04606262 46.37217712 148.05117798 C43.94993143 148.06578433 41.52775125 148.07259935 39.10546875 148.078125 C37.42019143 148.0838781 35.73491413 148.08963581 34.04963684 148.09539795 C30.51477758 148.10590386 26.97994104 148.11174908 23.44506836 148.11523438 C18.92236699 148.12071558 14.39996721 148.14473722 9.87736034 148.17320633 C6.3951582 148.19185942 2.91302829 148.19703975 -0.56921959 148.19857025 C-2.23613825 148.20159173 -3.90305579 148.2096032 -5.56992531 148.22275543 C-7.90597889 148.23987071 -10.24130119 148.23792253 -12.57739258 148.23144531 C-13.26176392 148.2406601 -13.94613525 148.24987488 -14.65124512 148.2593689 C-19.22472725 148.21978095 -22.39950793 147.46291952 -26.1875 144.875 C-30.38632352 139.42873884 -29.61628935 132.82443729 -29.59155273 126.26367188 C-29.59841599 124.99471573 -29.60527924 123.72575958 -29.61235046 122.41835022 C-29.63024856 118.94933132 -29.62912011 115.48056582 -29.62340808 112.01151466 C-29.62031187 109.11138266 -29.62641335 106.21129903 -29.63244683 103.31117392 C-29.64647893 96.46831307 -29.64494129 89.62557711 -29.63354492 82.78271484 C-29.62205995 75.73095143 -29.63614842 68.67956816 -29.6629414 61.62785482 C-29.68511256 55.56481806 -29.69173276 49.5019005 -29.68586498 43.43882608 C-29.68249815 39.82134295 -29.68489217 36.20410358 -29.70211601 32.58665466 C-29.72048488 28.55296821 -29.70638371 24.5200198 -29.68920898 20.48632812 C-29.69887695 19.2923793 -29.70854492 18.09843048 -29.71850586 16.86830139 C-29.66252695 10.59634141 -29.52034984 6.58153789 -25.1875 1.875 C-18.28974535 -2.71060407 -7.74307936 -2.82790725 0 0 Z " fill="#000000" transform="translate(816.1875,876.125)"/>
</svg>
